ProbingResiebiisSans.sfdir
StartChar: A
Encoding: 65 65 109
Width: 300
Flags: W
HStem: 209 78<112 188>
VStem: 112 76<209 287>
LayerCount: 2
Fore
SplineSet
188 209 m 1
 112 209 l 1
 112 287 l 1
 189 287 l 1
 188 209 l 1
EndSplineSet
Substitution2: "do_not_use_majuscule-1" a
EndChar
StartChar: a
Encoding: 97 97 4
Width: 500
Flags: W
HStem: 178 66<42 88.1884 360.974 467.087> 648 54G<100 165.273 292 352>
VStem: 292 60<250.719 318 468 702> 297 45<353.876 568.223>
LayerCount: 2
Back
SplineSet
352 318 m 6
 352 266 374 244 415 244 c 7
 450 244 489 251 510 261 c 5
 520 261 l 5
 507 191 l 5
 489 181 442 178 408 178 c 7
 350 178 292 209 292 298 c 6
 292 614 l 29
 352 614 l 29
 352 318 l 6
82 191 m 1xf0
 72 202 l 1
 85 261 l 1
 165 310 272 408 272 552 c 10
 272 614 l 25
 332 614 l 25
 332 527 l 18
 332 382 206 260 82 191 c 1xf0
352 350 m 2xe8
 352 318 l 2
 352 266 374 244 415 244 c 3
 450 244 489 251 510 261 c 1
 520 261 l 1
 507 191 l 1
 489 181 442 178 408 178 c 3
 350 178 292 209 292 298 c 2
 292 326 l 2
 292 406 289 450 131 488 c 2
 98 496 l 1
 98 556 l 1
 116 556 l 1
 168 544 l 2
 321 509 352 454 352 350 c 2xe8
EndSplineSet
Fore
SplineSet
62 182 m 5xd0
 42 182 l 5
 42 247 l 5
 211 300 297 405.71035399 297 468 c 7
 297 512.332310829 266.362051222 538.360071582 143 590 c 6
 100 608 l 5
 100 668 l 5
 118 668 l 5
 170 646 l 6
 275.442869256 601.389555315 342 568.22250224 342 468 c 7
 342 353.875976562 253 242 62 182 c 5xd0
352 318 m 6xe0
 352 270 364 244 395 244 c 7
 426 244 449 251 470 261 c 5
 480 261 l 5
 467 191 l 5
 449 181 421 178 388 178 c 7
 340 178 292 209 292 298 c 6
 292 702 l 29
 352 702 l 29
 352 318 l 6xe0
EndSplineSet
Substitution2: "as_fin-1" a.fin
Substitution2: "as_mid-1" a.mid
Substitution2: "as_ini-1" a.ini
Substitution2: "as_mark-1" a.mark
Substitution2: "as_long-1" long_vowel
EndChar
StartChar: b
Encoding: 98 98 2
Width: 1050
Flags: W
HStem: -120 66<643.264 822.997> 182 66<143.521 550> 266 20G<1032.11 1092.78> 414 60<151.506 258.053>
VStem: 74 60<248.486 396.027> 275 62<281.491 396.856> 504 62<32.8778 182 248 470> 504 46<182 248>
AnchorPoint: "bottom" 270 1 basechar 0
AnchorPoint: "top" 217 554 basechar 0
LayerCount: 2
Back
SplineSet
658 -4 m 7xfd
 562 -4 485 46 485 206 c 4
 485 416 l 5
 545 416 l 5
 545 206 545 338 545 209 c 4
 545 103 591 62 664 62 c 7
 752 62 780 117.830078125 780 165 c 7
 780 197.645507812 778.20703125 216.561523438 773 238 c 5
 773 261 l 5
 834 261 l 5
 841 235 844 220 844 170 c 7
 844 77.78125 796 -4 658 -4 c 7xfd
64 303 m 3xfb
 64 381 125 420 179 420 c 3
 245 420 292 376 292 315 c 3
 292 266 251 224 198 199 c 1
 157 241 l 1
 211 254 230 277 230 308 c 3
 230 339 207 360 175 360 c 3
 146 360 124 341 124 305 c 3
 124 269 158 248 217 248 c 3
 396 248 451 248 533 248 c 1
 530 182 l 1
 429 182 362 182 196 182 c 3
 120.978876382 182 64 232 64 303 c 3xfb
EndSplineSet
Fore
SplineSet
728 -120 m 3xfe
 573 -120 504 -23.623046875 504 146 c 3
 504 279.541992188 504 355.091796875 504 470 c 25
 566 470 l 25
 566 358.086914062 566 241.043945312 566 154 c 3
 566 29.962890625 609 -54 734 -54 c 3
 896 -54 954 106 965 261 c 1
 1026 261 l 1
 1026 241 l 1
 1013.8671875 58 923 -120 728 -120 c 3xfe
74 333 m 3
 74 421 131 474 209 474 c 3
 285 474 337 430 337 348 c 3
 337 263 271 233 212 213 c 1
 153 228 l 1
 207 235 275 277 275 338 c 3
 275 389 247 414 205 414 c 3
 165 414 134 391 134 335 c 3
 134 286 144 264 155 248 c 1
 334 248 471 248 553 248 c 1
 550 182 l 1xfd
 449 182 281 182 115 182 c 1
 89 218 74 266 74 333 c 3
EndSplineSet
Substitution2: "as_fin-1" b.fin
Substitution2: "as_mid-1" b.mid
Substitution2: "as_ini-1" b.ini
EndChar
StartChar: c
Encoding: 99 99 56
Width: 760
Flags: W
HStem: 178 66<192.727 444.54> 450 104G<72 132 647 726>
VStem: 72 60<298.326 470> 665 61<477.516 554>
AnchorPoint: "bottom" 318 -78 basechar 0
AnchorPoint: "top" 313 554 basechar 0
AnchorPoint: "tail" 544 248 basechar 0
LayerCount: 2
Fore
SplineSet
72 363 m 2
 72 470 l 1
 132 470 l 1
 132 373 l 2
 132 272 203.799804688 244 329.400390625 244 c 3
 459.120117188 244 629 334 665 554 c 1
 726 554 l 1
 726 534 l 1
 691 304 511.0390625 178 324.599609375 178 c 3
 181.400390625 178 72 220 72 363 c 2
369 54 m 1
 334 2 l 1
 314 2 l 1
 272 51 l 1
 307 103 l 1
 329 103 l 1
 369 54 l 1
EndSplineSet
Substitution2: "as_fin-1" c.fin
EndChar
StartChar: d
Encoding: 100 100 57
Width: 420
Flags: W
HStem: 178 66<279.043 387.087> 400 66<91 171.312> 627 64<70 182.802> 642 64<70.7698 261.312>
VStem: 212 60<249.784 400.251> 281 66<505.145 620.944>
AnchorPoint: "top" 187 770 basechar 0
AnchorPoint: "bottom" 184 88 basechar 0
LayerCount: 2
Fore
SplineSet
272 318 m 3xcc
 272 260.859375 284 244 315 244 c 3
 346 244 369 251 390 261 c 1
 400 261 l 1
 387 191 l 1
 369 181 341 178 308 178 c 3
 260 178 212 197.977539062 212 298 c 3
 212 368.075195312 204 409 175 405 c 1
 174 448 l 1
 255 461 272 410.038085938 272 318 c 3xcc
110.000976562 400 m 1
 91 400 l 1
 91 466 l 1
 211 466 281 486 281 562 c 3
 281 616 254 642 187 642 c 3xdc
 166 642 107 637 83 627 c 1
 70 627 l 1
 70 691 l 1xec
 98 701 159 706 184 706 c 3xdc
 288 706 347 663.005859375 347 561 c 3
 347 442 219 400 110.000976562 400 c 1
EndSplineSet
Substitution2: "as_fin-1" d.fin
Substitution2: "as_mid-1" d.mid
Substitution2: "as_ini-1" d.ini
EndChar
StartChar: e
Encoding: 101 101 5
Width: 300
Flags: W
HStem: 178 66<171.461 268.849> 450 258G<9 89.5859 102 162 177.233 257> 558 21G<84.4122 181.588>
VStem: 102 60<251.33 470>
LayerCount: 2
Fore
SplineSet
205.974609375 178 m 3x90
 154 178 102 202 102 298 c 2
 102 470 l 1
 162 470 l 1
 162 308 l 2
 162 259 184 244 213.474609375 244 c 3
 234 244 254.55078125 247.5 267 255 c 1
 277 255 l 1
 272 185 l 1
 256.943359375 180 233 178 205.974609375 178 c 3x90
9 689 m 1
 9 708 l 1
 80 708 l 1
 133 597.420898438 l 1
 187 708 l 1
 257 708 l 1xd0
 257 689 l 1
 168 558 l 1
 98 558 l 1xb0
 9 689 l 1
EndSplineSet
Substitution2: "as_fin-1" e.fin
Substitution2: "as_mid-1" e.mid
Substitution2: "as_ini-1" e.ini
Substitution2: "as_mark-1" e.mark
Substitution2: "as_long-1" long_vowel
EndChar
StartChar: g
Encoding: 103 103 74
Width: 390
Flags: W
HStem: 178 66<147.298 254.841> 430 44<200.635 257.795> 627 64<141 226.011> 642 64<141.761 257.878>
VStem: 64 60<266.247 403.55> 261 66<563.761 640.184> 278 60<266.729 410.81>
AnchorPoint: "top" 175 770 basechar 0
AnchorPoint: "bottom" 203 89 basechar 0
AnchorPoint: "tail" 280 207 basechar 0
LayerCount: 2
Fore
SplineSet
261 600 m 3xdc
 261 632 246.924804688 642 227 642 c 3xdc
 206 642 178 637 154 627 c 1
 141 627 l 1
 141 691 l 1xec
 169 701 205 706 232 706 c 3
 289.03515625 706 327 679.008789062 327 611 c 3xdc
 327 501.995117188 124 447.447406767 124 332 c 3
 124 278 154 244 199 244 c 3
 260 244 278 290 278 337 c 3
 278 397.638671875 254 430 206 430 c 0
 177 430 134 405.631835938 107 390 c 1
 135 467 l 1
 157 475 209 474 228 474 c 0
 296 474 338 419.08203125 338 338 c 3xda
 338 245.458007812 288 178 198 178 c 3
 116 178 64 233.959283202 64 331 c 3
 64 478.457930889 261 543.956054688 261 600 c 3xdc
EndSplineSet
Substitution2: "as_fin-1" g.fin
EndChar
StartChar: h
Encoding: 104 104 76
Width: 470
Flags: W
HStem: 470 98G<82 142 279.196 342>
VStem: 82 60<265.75 470> 129 66<-54.4585 103.655> 356 60<294.388 472.304>
AnchorPoint: "tail" 232 -149 basechar 0
AnchorPoint: "top" 197 702 basechar 0
AnchorPoint: "bottom" 157 -178 basechar 0
LayerCount: 2
Back
SplineSet
290 200 m 5
 186 128 185 64 185 21 c 7
 185 -13 222 -65 268 -78 c 5
 268 -92 l 5
 212 -130 l 5
 152 -100 119 -37 119 25 c 7xb0
 119 82.4282160614 140 164 240 238 c 5
 290 200 l 5
EndSplineSet
Fore
SplineSet
289 588 m 1xd0
 306 588 l 1
 378 546 416 492.106445312 416 375 c 3
 416 237 302 178 228 178 c 3
 146.65234375 178 82 206 82 330 c 2
 82 470 l 1
 142 470 l 1
 142 340 l 2
 142 261 176.6953125 244 233 244 c 3
 281 244 356 273.979492188 356 371 c 3
 356 452.498046875 330 506 264 537 c 9
 289 588 l 1xd0
300 198 m 5
 218 133.408203125 195 74.056640625 195 5 c 3
 195 -45.3115234375 235 -82 278 -97 c 1
 278 -111 l 1
 232 -149 l 1
 174 -125 129 -77.3349609375 129 2 c 3xb0
 129 81.005859375 160 155.444444444 250 238 c 1
 300 198 l 5
EndSplineSet
Substitution2: "as_fin-1" h.fin
EndChar
StartChar: i
Encoding: 105 105 6
Width: 490
Flags: W
HStem: 178 67<161.149 271.549> 450 20G<82 142 346 406>
VStem: 82 60<263.219 470> 99 66<-95.6574 0.0779357> 346 60<146 470>
AnchorPoint: "tail" 192 -178 basechar 0
LayerCount: 2
Fore
SplineSet
254 109 m 2xd8
 346 146 l 1
 346 470 l 1
 406 470 l 17
 406 95 l 1
 235 48 165 7 165 -49 c 3
 165 -84 196 -111 238 -126 c 1
 238 -140 l 1
 192 -178 l 1
 132 -148 99 -113 99 -51 c 3
 99 20.2041015625 141.052645985 63.5755206678 254 109 c 2xd8
82 470 m 1xe8
 142 470 l 1
 142 356 l 2
 142 276 165 245 203 245 c 3
 251 245 305 278 358 353 c 1
 398 329 l 1
 354 253 272 178 198 178 c 3
 122 178 82 212 82 346 c 2
 82 470 l 1xe8
EndSplineSet
Substitution2: "as_fin-1" i.fin
Substitution2: "as_mark-1" i.mark
Substitution2: "as_long-1" long_vowel
EndChar
StartChar: l
Encoding: 108 108 53
Width: 490
Flags: W
HStem: 281 60<267.817 349.567> 623 64<51 165.178> 642 64<51.994 232.343>
VStem: 216 60<-81.9815 15.9003> 271 66<414.654 602.196> 365 65<155.049 264.311>
AnchorPoint: "bottom" 234 -178 basechar 0
AnchorPoint: "tail" 278 -149 basechar 0
AnchorPoint: "top" 147 770 basechar 0
LayerCount: 2
Back
SplineSet
82 191 m 5
 70 196 l 5
 85 261 l 5
 226 313 241 439.673828125 241 492 c 7
 241 592.083007812 180.03125 642 117 642 c 7xb8
 78 642 48 634 14 623 c 5
 1 623 l 5
 1 687 l 5xd8
 39 699 74 706 114 706 c 7xb8
 211.064453125 706 307 639.463867188 307 491 c 7
 307 409 291 251 82 191 c 5
220 241 m 3x4a
 175 241 136 226 93 201 c 1
 95 261 l 1
 136 284 174 301 230 301 c 3
 286 301 340 275 340 200 c 0
 340 124.918945312 265.205998011 96.9670891767 236 62.0413553054 c 0
 218.879877289 41.5684082956 217 19.2470963508 217 -2 c 3
 217 -30 247 -56 288 -74 c 1
 288 -88 l 1
 232 -126 l 1
 176 -91 149 -64 149 -8 c 3
 149 28.8844153889 156.264827867 70.1277274982 200.118290902 109.99999697 c 0
 214.448416343 123.02917605 275.439453125 167.546875 275.439453125 200 c 3
 275.439453125 220.952148438 266.886271103 241 220 241 c 3x4a
281 161 m 1x4c
 287 216 265 241 220 241 c 3
 175 241 136 226 93 201 c 1
 95 261 l 1
 136 284 174 301 230 301 c 3
 286 301 348 263 348 183 c 1
 348 158 345 129 334 112 c 1
 224 84 217 39 217 -2 c 3
 217 -30 237 -56 278 -74 c 1
 288 -88 l 1
 232 -126 l 1
 176 -91 149 -64 149 -8 c 3
 149 45 164 107 281 161 c 1x4c
273 132 m 2xd8
 326 146 l 1
 326 416 l 1
 386 416 l 17
 386 95 l 1
 234 58 185 34 185 -9 c 3
 185 -41 223 -65 268 -78 c 1
 268 -92 l 1
 212 -130 l 1
 152 -100 119 -67 119 -5 c 3
 119 56.2045749924 157.152463757 101.398764011 273 132 c 2xd8
132 191 m 1
 119 195 l 1
 135 261 l 1
 209 289 211 375 211 421 c 3
 211 476 179 536 127 536 c 3xb8
 106 536 78 531 54 521 c 1
 41 521 l 1
 41 585 l 1xd8
 69 595 99 600 124 600 c 3xb8
 214 600 277 532 277 420 c 3
 277 310.889648438 250 209 132 191 c 1
EndSplineSet
Fore
SplineSet
430 220 m 3x94
 430 85.6787109375 276 56 276 -44 c 3
 276 -69 299 -86 324 -97 c 1
 324 -111 l 1
 278 -149 l 1
 240 -123.75 216 -92 216 -47 c 3
 216 91.00390625 365 111.994140625 365 220 c 3
 365 249 342 281 291 281 c 3
 230.791992188 281 205 258 156 228 c 1
 161 260 l 1
 200 304 253.991210938 341 309 341 c 3
 381 341 430 293 430 220 c 3x94
63 182.193359375 m 5
 48 180.818359375 l 5
 48 248.317382812 l 5
 247 331 271 438.943359375 271 528 c 7
 271 597.1015625 230.03125 642 167 642 c 7xac
 128 642 98 634 64 623 c 5
 51 623 l 5
 51 687 l 5xcc
 89 699 132 706 172 706 c 7
 269.064453125 706 337 653.00390625 337 531 c 7xac
 337 425.98046875 302 274 63 182.193359375 c 5
EndSplineSet
Substitution2: "as_fin-1" l.fin
EndChar
StartChar: m
Encoding: 109 109 3
Width: 850
Flags: W
HStem: 170 66<152.549 529.623> 178 66<721.461 818.849> 414 60<146.506 253.053>
VStem: 69 60<260.564 396.027> 270 62<281.375 396.856> 652 60<251.33 308 361 470> 652 42<281.797 361>
AnchorPoint: "bottom" 223 87 basechar 0
AnchorPoint: "top" 206 554 basechar 0
LayerCount: 2
Back
SplineSet
412 139 m 4xbc
 570.989257812 139 723.791992188 139.540039062 751.53515625 279 c 4
 789 205.08203125 l 4
 738.596679688 81.9873046875 577.788085938 79 406 79 c 4
 228.194335938 79 60 106.30078125 60 275.491210938 c 7
 60 380.307617188 132 440 224 440 c 7
 318 440 386 379 386 282 c 7
 386 197.620117188 349.891601562 156.904296875 300.130859375 124.65625 c 5
 237 146 l 5
 301 186 320 230.67578125 320 278 c 7
 320 339 288 380 220 380 c 7
 157 380 126 327 126 273.6484375 c 7
 126 182.880859375 204.823242188 139 412 139 c 4xbc
EndSplineSet
Fore
SplineSet
755.974609375 178 m 3x7c
 704 178 652 202 652 298 c 2
 652 470 l 1
 712 470 l 1
 712 308 l 2
 712 259 734 244 763.474609375 244 c 3
 784 244 804.55078125 247.5 817 255 c 1
 827 255 l 1
 822 185 l 1
 806.943359375 180 783 178 755.974609375 178 c 3x7c
110 205 m 1
 84 241 69 273.991210938 69 333 c 3
 69 421 126 474 204 474 c 3
 280 474 332 430 332 348 c 3
 332 263 266 233 207 213 c 1
 148 228 l 1
 202 234 270 277 270 338 c 3
 270 389 242 414 200 414 c 3
 160 414 129 391 129 335 c 3
 129 299.872070312 139 276 150 260 c 1
 208 241 288 236 390 236 c 3
 560 236 652 313 652 373 c 1xbc
 694 361 l 1
 694 244 578 170 382 170 c 3xba
 236 170 159 182 110 205 c 1
EndSplineSet
Substitution2: "as_fin-1" m.fin
Substitution2: "as_mid-1" m.mid
Substitution2: "as_ini-1" m.ini
EndChar
StartChar: n
Encoding: 110 110 61
Width: 760
Flags: W
HStem: 178 66<192.727 444.54> 450 104G<72 132 647 726>
VStem: 72 60<298.326 470> 665 61<477.516 554>
AnchorPoint: "bottom" 318 -78 basechar 0
AnchorPoint: "top" 313 554 basechar 0
AnchorPoint: "tail" 544 248 basechar 0
LayerCount: 2
Fore
SplineSet
72 363 m 6
 72 470 l 5
 132 470 l 5
 132 373 l 6
 132 272 203.799804688 244 329.400390625 244 c 7
 459.120117188 244 629 334 665 554 c 5
 726 554 l 5
 726 534 l 5
 691 304 511.0390625 178 324.599609375 178 c 7
 181.400390625 178 72 220 72 363 c 6
299 55 m 1
 264 3 l 1
 244 3 l 1
 202 52 l 1
 237 104 l 1
 259 104 l 1
 299 55 l 1
449 55 m 1
 414 3 l 1
 394 3 l 1
 352 52 l 1
 387 104 l 1
 409 104 l 1
 449 55 l 1
EndSplineSet
Substitution2: "as_fin-1" n.fin
EndChar
StartChar: o
Encoding: 111 111 7
Width: 300
Flags: W
HStem: 178 66<171.461 272.217> 558 21G<18 88.5 148 211.588> 688 20G<102 162 206.701 287> 704 46<12 60.6269>
VStem: 61 66<620.052 702.243> 102 60<251.33 470>
LayerCount: 2
Back
SplineSet
197.974609375 178 m 3
 140 178 82 209 82 298 c 2
 82 416 l 1
 142 416 l 1
 142 318 l 2xc4
 142 266 164 244 205.474609375 244 c 3
 240 244 278.55078125 250.5 300 261 c 1
 310 261 l 1
 297 191 l 1
 278.943359375 181 232 178 197.974609375 178 c 3
EndSplineSet
Fore
SplineSet
18 574 m 1xd8
 42 612 61 652.895507812 61 677 c 3
 61 700 40 704 22 704 c 1
 12 704 l 1
 12 745 l 1
 30 748 45.443359375 750 74 750 c 3
 105 750 127 722 127 696 c 3
 127 660.985351562 109 620 68 558 c 1
 18 558 l 1
 18 574 l 1xd8
148 574 m 1
 217 708 l 1
 287 708 l 1xe0
 287 689 l 1
 198 558 l 1
 148 558 l 1
 148 574 l 1
205.974609375 178 m 3
 154 178 102 202 102 298 c 2
 102 470 l 1
 162 470 l 1
 162 308 l 2xc4
 162 259 184 244 213.474609375 244 c 3
 234 244 262.55078125 250.5 275 261 c 1
 285 261 l 1
 272 191 l 1
 256.943359375 182 233 178 205.974609375 178 c 3
EndSplineSet
Substitution2: "as_fin-1" o.fin
Substitution2: "as_mid-1" o.mid
Substitution2: "as_ini-1" o.ini
Substitution2: "as_long-1" long_vowel
Substitution2: "as_mark-1" o.mark
EndChar
StartChar: q
Encoding: 113 113 95
Width: 480
Flags: W
HStem: -177.999 65.999<6 57.2578> 178 66<187.815 346.505> 682 20G<250.5 355>
VStem: 60 66<300.765 457.74>
AnchorPoint: "tail" 317 61 basechar 0
AnchorPoint: "bottom" 278 -115 basechar 0
AnchorPoint: "top" 267 769 basechar 0
LayerCount: 2
Fore
SplineSet
420 197 m 5
 277 0 143 -143.999023438 20 -178 c 5
 6 -177.999023438 l 5
 6 -112 l 5
 84 -99.9990234375 239 43 359 217 c 5
 407 261 l 5
 420 197 l 5
336 702 m 5
 355 702 l 5
 355 636 l 5
 210 558 126 480.3046875 126 367 c 7
 126 292 197.198242188 244 270 244 c 7
 310.607421875 244 383 251 407 261 c 5
 420 261 l 5
 420 197 l 5
 392 187 326.190429688 178 273 178 c 7
 152.533203125 178 60 236 60 368 c 7
 60 513 165 604 336 702 c 5
EndSplineSet
Substitution2: "as_fin-1" q.fin
EndChar
StartChar: s
Encoding: 115 115 0
Width: 930
Flags: W
HStem: -120 66<515.903 706.426> -17 20G<203.538 255.327> 178 66<166.408 292.011> 450 20G<82 142 376.444 442>
VStem: 82 60<268.042 470> 363 62<53.508 276.602> 380 62<374.193 470> 845 61<132.703 261>
AnchorPoint: "bottom" 228 -178 basechar 0
AnchorPoint: "top" 251 555 basechar 0
LayerCount: 2
Back
SplineSet
185 56 m 13
 185 126 l 5
 245 126 l 5
 245 56 l 21
 185 56 l 13
683 202 m 1
 747 202 l 1
 751 176 753 147 753 111 c 3
 753 -9.08925726122 683.014705087 -82 549 -82 c 3
 453 -82 334 -34 334 126 c 3
 334 249 351 361 357 416 c 1
 423 416 l 1
 423 396 l 1
 413 320 400 264 400 139 c 3
 400 16 482 -22 555 -22 c 3
 646.021274188 -22 687 27.9801999606 687 114 c 3
 687 139.645355606 684.20716145 158.561224749 683 179 c 1
 683 202 l 1
82 416 m 1
 148 416 l 1
 148 316 l 2
 148 236 161 198 207 198 c 3
 275 198 333 258 357 416 c 1
 393 344 l 1
 359 173 285 138 202 138 c 3
 123 138 82 197 82 306 c 0
 82 356 82 366 82 416 c 1
0 202 m 1xee
 51 202 83 226 83 306 c 1xf6
 129 298 l 1
 125.627906977 186 73 142 42 142 c 1
 0 142 l 1
 0 202 l 1xee
196 -36 m 27
 182 -36 165 -48 165 -60 c 27
 165 -78 180 -89 201 -89 c 27
 218 -89 233 -78 233 -63 c 27
 233 -43 219 -36 196 -36 c 27
162 -119 m 1
 164 -162 202 -190 245 -200 c 1
 245 -230 l 25
 228 -230 l 1
 163 -216 106 -171 106 -100 c 3
 106 -29 151 4 201 4 c 3
 245 4 280 -24 280 -61 c 3
 280 -104 250 -130 216 -130 c 3
 192 -130 176 -124 169 -115 c 1
 162 -119 l 1
400 6 m 27
 383 6 364 -11 364 -28 c 27
 364 -54 384 -70 410 -70 c 27
 431 -70 456 -59 456 -38 c 27
 456 -9 429 6 400 6 c 27
351 -90 m 1
 351 -171 409 -208 464 -231 c 1
 464 -274 l 25
 443 -274 l 1
 376 -248 291 -190.004882812 291 -85 c 3
 291 16.771484375 343 64 406 64 c 3
 461 64 512 15 512 -32 c 3
 512 -90.0341796875 476 -128 437 -128 c 3
 407 -128 382 -113 360 -84 c 1
 351 -90 l 1
EndSplineSet
Fore
SplineSet
425 194 m 0xfd
 426 19.962890625 490 -54 614 -54 c 3
 776 -54 834 106 845 261 c 1
 906 261 l 1
 906 241 l 1
 893.8671875 58 803 -120 608 -120 c 3
 454 -120 364 -33.623046875 363 186 c 0xfd
 363 319.541992188 372.888671875 422 380 470 c 1
 442 470 l 1
 442 446 l 1xfb
 434 385 425 281.043945312 425 194 c 0xfd
279 -46 m 1
 244 -98 l 1
 224 -98 l 1
 182 -49 l 1
 217 3 l 1
 239 3 l 1
 279 -46 l 1
82 470 m 1
 142 470 l 1
 142 326 l 2
 142 269 184 244 223 244 c 3
 292 244 376 321 376 400 c 1
 416 356 l 1
 395 247 299 178 218 178 c 3
 142 178 82 211 82 316 c 2
 82 470 l 1
EndSplineSet
Substitution2: "as_fin-1" s.fin
Substitution2: "as_mid-1" s.mid
Substitution2: "as_ini-1" s.ini
EndChar
StartChar: t
Encoding: 116 116 97
Width: 1110
Flags: W
HStem: -120 66<29 56.4689 695.903 886.426> 178 66<325.724 488.592> 382.127 68.1152<70 133.303> 410 64<97.9592 225.553>
VStem: 543 62<53.508 262.426> 557 34<279 376> 560 62<386.104 470> 1025 61<132.703 261>
AnchorPoint: "bottom" 413 0 basechar 0
AnchorPoint: "top" 414 554 basechar 0
LayerCount: 2
Fore
SplineSet
312 272 m 1xc5
 345 246.071289062 368.973632812 244 410 244 c 3
 470.71875 244 552.423828125 279 557 406 c 1
 591 376 l 1
 586.580078125 218 494.1328125 178 401 178 c 3
 350.372070312 178 331 182 297 197 c 1
 290 275 l 1
 312 272 l 1xc5
605 194 m 0xc9
 606 19.962890625 670 -54 794 -54 c 3
 956 -54 1014 106 1025 261 c 1
 1086 261 l 1
 1086 241 l 1
 1073.8671875 58 983 -120 788 -120 c 7
 634 -120 544 -33.623046875 543 186 c 0xc9
 543 319.541992188 552.888671875 422 560 470 c 1
 622 470 l 1
 622 446 l 1xc3
 614 385 605 281.043945312 605 194 c 0xc9
48 -116 m 5
 29 -116 l 5
 29 -50 l 5
 196 35 261 169.55078125 261 261 c 7
 261 368.787109375 228.033203125 410 167 410 c 7xd1
 138.760742188 410 106.708007812 395.614257812 90 382.126953125 c 5
 69.9990234375 382.126953125 l 5
 70 450.2421875 l 5xe1
 91.8447265625 466.393554688 125.966796875 474 166 474 c 7xd1
 271.223632812 474 327 392.185546875 327 260 c 7
 327 116 230 -21 48 -116 c 5
EndSplineSet
Substitution2: "as_fin-1" t.fin
Substitution2: "as_mid-1" t.mid
Substitution2: "as_ini-1" t.ini
EndChar
StartChar: u
Encoding: 117 117 8
Width: 400
Flags: W
HStem: -149 60.082<82.8215 176.185> 25 56<84.527 242.233> 178 60<165.042 297.985> 450 20G<82 148>
VStem: 4 66<-77.1696 10.6425> 82 66<256.648 470>
AnchorPoint: "tail" 289 -28.3528 basechar 0
LayerCount: 2
Fore
SplineSet
374 242 m 1
 374 207 l 1
 308 24 l 2
 270.561368999 -79.8071132302 218.026367188 -149 128 -149 c 3
 47.900390625 -149 4 -102.028320312 4 -32 c 3
 4 33.84375 65.970703125 81 134 81 c 3
 191.715820312 81 245.08984375 76.8017578125 269 71 c 1
 258 14 l 1
 226 20 180.17578125 25 143 25 c 3
 91.595703125 25 70 -5.31640625 70 -32 c 3
 70 -62.06640625 95.9296875 -88.91796875 122 -88.91796875 c 3
 188.234375 -88.91796875 220.639648438 -13.900390625 255 81 c 2
 305 216 l 1
 374 242 l 1
253 178 m 3
 144 178 82 199.65625 82 303 c 2
 82 470 l 1
 148 470 l 1
 148 311 l 2
 148 238.680664062 209.447265625 238 253 238 c 3
 294 238 330 239 374 242 c 1
 344 206 l 1
 300 203 312 178 253 178 c 3
EndSplineSet
Substitution2: "as_fin-1" u.fin
Substitution2: "as_mark-1" u.mark
Substitution2: "as_long-1" long_vowel
EndChar
StartChar: w
Encoding: 119 119 70
Width: 810
Flags: W
HStem: 170 66<152.549 516.976> 414 60<146.506 253.053> 535 20G<707 786>
VStem: 69 60<260.564 396.027> 270 62<281.375 396.856> 725 61<472.85 555>
AnchorPoint: "tail" 628 248 basechar 0
AnchorPoint: "bottom" 228 -78 basechar 0
AnchorPoint: "top" 206 554 basechar 0
LayerCount: 2
Fore
SplineSet
279 54 m 1
 244 2 l 1
 224 2 l 1
 182 51 l 1
 217 103 l 1
 239 103 l 1
 279 54 l 1
382 170 m 3
 236 170 159 182 110 205 c 1
 84 241 69 273.991210938 69 333 c 3
 69 421 126 474 204 474 c 3
 280 474 332 430 332 348 c 3
 332 263 266 233 207 213 c 1
 148 228 l 1
 202 234 270 277 270 338 c 3
 270 389 242 414 200 414 c 3
 160 414 129 391 129 335 c 3
 129 299.872070312 139 276 150 260 c 1
 208 241 288 236 390 236 c 3
 560 236 689 335 725 555 c 5
 786 555 l 1
 786 535 l 5
 751 305 608 170 382 170 c 3
EndSplineSet
Substitution2: "as_fin-1" w.fin
EndChar
StartChar: x
Encoding: 120 120 88
Width: 700
Flags: W
HStem: 178 66<571.461 668.849> 450 20G<502 562> 623 64<61 175.178> 642 64<61.994 242.343>
VStem: 281 66<414.654 602.196> 502 60<251.33 308 416 470> 502 42<280.832 416>
AnchorPoint: "bottom" 378 -78 basechar 0
AnchorPoint: "top" 357 770 basechar 0
LayerCount: 2
Fore
SplineSet
605.974609375 178 m 3xcc
 554 178 502 202 502 298 c 2
 502 470 l 1
 562 470 l 1
 562 308 l 2
 562 259 584 244 613.474609375 244 c 3
 634 244 654.55078125 247.5 667 255 c 1
 677 255 l 1
 672 185 l 1
 656.943359375 180 633 178 605.974609375 178 c 3xcc
283 386 m 1
 404 249 l 1
 445 261 500 335 504 446 c 1
 544 416 l 1xca
 540 273 463 194 402 178 c 1
 382 178 l 1
 223 352 l 1
 283 386 l 1
73 182.193359375 m 1
 58 180.818359375 l 1
 58 248.317382812 l 1
 257 331 281 438.943359375 281 528 c 3
 281 597.1015625 240.03125 642 177 642 c 3xd8
 138 642 108 634 74 623 c 1
 61 623 l 1
 61 687 l 1xe8
 99 699 142 706 182 706 c 3xd8
 279.064453125 706 347 653.00390625 347 531 c 3
 347 425.98046875 312 274 73 182.193359375 c 1
359 55 m 1
 324 3 l 1
 304 3 l 1
 262 52 l 1
 297 104 l 1
 319 104 l 1
 359 55 l 1
509 55 m 1
 474 3 l 1
 454 3 l 1
 412 52 l 1
 447 104 l 1
 469 104 l 1
 509 55 l 1
EndSplineSet
Substitution2: "as_fin-1" x.fin
Substitution2: "as_mid-1" x.mid
Substitution2: "as_ini-1" x.ini
EndChar
StartChar: y
Encoding: 121 121 94
Width: 400
Flags: W
HStem: -120 66<208.735 326> 414 60<181.741 274.637>
VStem: 76 62<35.4316 352.557> 280 60<308.567 407.112>
AnchorPoint: "tail" 316 -115 basechar 0
AnchorPoint: "top" 197 554 basechar 0
AnchorPoint: "bottom" 156 -149 basechar 0
LayerCount: 2
Fore
SplineSet
112 178 m 5
 115 248 l 5
 228 259 280 313.84337775 280 365 c 7
 280 400 262 414 224 414 c 7
 181 414 138 364 138 180.724609375 c 7
 138 7.4501953125 203 -54 267 -54 c 7
 279.098632812 -54 297.24609375 -54 308 -51 c 5
 326 -51 l 5
 326 -115 l 5
 307.647460938 -119 280.8828125 -120 261 -120 c 7
 166.228515625 -120 76 -34.8984375 76 181.4453125 c 7
 76 407.788085938 145 474 226 474 c 7
 299 474 340 440 340 361 c 7
 340 278.9765625 286 205 112 178 c 5
EndSplineSet
Substitution2: "as_fin-1" y.fin
EndChar
StartChar: z
Encoding: 122 122 104
Width: 760
Flags: W
HStem: 178 66<192.727 463.192> 450 20G<72 132> 636 66<593 619>
VStem: 72 60<298.326 470> 649 60<411.003 604.748>
AnchorPoint: "bottom" 318 -78 basechar 0
AnchorPoint: "top" 313 556 basechar 0
AnchorPoint: "tail" 569 248 basechar 0
LayerCount: 2
Fore
SplineSet
709 506 m 3
 709 333.802589416 580.578125 178 324.599609375 178 c 3
 181.400390625 178 72 220 72 363 c 2
 72 470 l 1
 132 470 l 1
 132 373 l 2
 132 272 203.799804688 244 329.400390625 244 c 3
 542.313476562 244 649 376 649 506 c 3
 649 565.008789062 635 616 593 636 c 1
 593 702 l 1
 619 702 l 1
 691 664 709 588 709 506 c 3
369 54 m 1
 334 2 l 1
 314 2 l 1
 272 51 l 1
 307 103 l 1
 329 103 l 1
 369 54 l 1
EndSplineSet
Substitution2: "as_fin-1" z.fin
EndChar
StartChar: uni25CC
Encoding: 9676 9676 108
Width: 550
Flags: W
HStem: -1 37<225.469 257 293 324.531> 8 34<221.838 256.25 293.75 328.162> 376 38<222.982 256.25 293.75 327.018> 382 41<226.469 257 293 323.531>
VStem: 63 38<161.469 193 229 260.531> 72 35<158.357 192.25 229.75 263.643> 443 35<158.357 192.25 229.75 263.643> 449 38<161.469 193 229 260.531>
AnchorPoint: "tail" 424 62 basechar 0
AnchorPoint: "bottom" 275 -68 basechar 0
AnchorPoint: "top" 273 496 basechar 0
LayerCount: 2
Fore
SplineSet
257 382 m 1x10
 257 423 l 1x10
 241 422 225 419 210 414 c 1
 226 376 l 1x20
 236 379 246 381 257 382 c 1x10
193 363 m 1
 177 400 l 1
 163 393 150 384 138 374 c 1
 166 345 l 1
 174 352 184 358 193 363 c 1
140 320 m 1
 112 348 l 1
 102 336 93 323 86 309 c 1
 122 294 l 1
 127 303 133 312 140 320 c 1
108 261 m 1
 72 276 l 1x04
 67 261 64 245 63 229 c 1x08
 102 229 l 1
 103 240 105 251 108 261 c 1
448 229 m 1
 487 229 l 1x01
 486 245 483 261 478 276 c 1x02
 442 261 l 1
 445 251 447 240 448 229 c 1
428 294 m 1
 464 309 l 1
 457 323 448 336 438 348 c 1
 410 320 l 1
 417 312 423 303 428 294 c 1
384 345 m 1
 412 374 l 1
 400 384 387 393 373 400 c 1
 357 363 l 1
 366 358 376 352 384 345 c 1
324 376 m 1x20
 340 414 l 1x20
 325 419 309 422 293 423 c 1
 293 382 l 1x10
 304 381 314 379 324 376 c 1x20
293 36 m 1x80
 293 -1 l 1x80
 309 0 325 3 340 8 c 1
 325 42 l 1x40
 315 39 304 37 293 36 c 1x80
359 56 m 1
 373 22 l 1
 387 29 400 38 412 48 c 1
 386 74 l 1
 378 67 369 61 359 56 c 1
411 100 m 1
 438 74 l 1
 448 86 457 99 464 113 c 1
 429 128 l 1
 424 118 418 109 411 100 c 1
443 161 m 1x02
 478 146 l 1x02
 483 161 486 177 487 193 c 1
 449 193 l 1x01
 448 182 446 171 443 161 c 1x02
101 193 m 1x08
 63 193 l 1x08
 64 177 67 161 72 146 c 1
 107 161 l 1x04
 104 171 102 182 101 193 c 1x08
121 128 m 1
 86 113 l 1
 93 99 102 86 112 74 c 1
 139 100 l 1
 132 109 126 118 121 128 c 1
164 74 m 1
 138 48 l 1
 150 38 163 29 177 22 c 1
 191 56 l 1
 181 61 172 67 164 74 c 1
225 42 m 1x40
 210 8 l 1x40
 225 3 241 0 257 -1 c 1
 257 36 l 1x80
 246 37 235 39 225 42 c 1x40
EndSplineSet
EndChar
StartChar: a.fin
Encoding: 65546 -1 25
Width: 530
Flags: W
HStem: 178 66<390.974 497.087> 191 70<85 149.294> 646 56G<130 195.273 322 382>
VStem: 322 60<250.719 318 468 702> 327 45<315.602 566.78>
LayerCount: 2
Back
SplineSet
92 182 m 5xc4
 72 182 l 5
 72 247 l 5
 241 300 327 405.709960938 327 468 c 7
 327 522.33203125 290.821289062 569.012695312 163 600 c 6
 130 608 l 5
 130 668 l 5
 148 668 l 5
 200 656 l 6
 309.404296875 630.752929688 372 578.22265625 372 468 c 7
 372 353.875976562 283 242 92 182 c 5xc4
EndSplineSet
Fore
SplineSet
82 191 m 1x68
 72 202 l 1
 85 261 l 1
 198 286 327 375.994565378 327 468 c 3
 327 516.821764679 285.931891394 540.726184998 173 588 c 2
 130 606 l 1
 130 666 l 1
 148 666 l 1
 200 644 l 2
 299.367628607 601.959849435 372 566.779593675 372 468 c 3
 372 315.602493459 230 222 82 191 c 1x68
382 318 m 6xb0
 382 270 394 244 425 244 c 7xb0
 456 244 479 251 500 261 c 5
 510 261 l 5
 497 191 l 5x70
 479 181 451 178 418 178 c 7
 370 178 322 209 322 298 c 6
 322 702 l 29
 382 702 l 29
 382 318 l 6xb0
EndSplineSet
Substitution2: "from_low-1" a.fin.low
EndChar
StartChar: a.fin.low
Encoding: 65586 -1 73
Width: 520
Flags: W
HStem: 178 66<380.974 487.087> 682 20G<120 185.273 312 372>
VStem: 312 60<250.719 384 455 702> 317 45<468 566.779>
LayerCount: 2
Fore
SplineSet
372 318 m 6xe0
 372 270 384 244 415 244 c 7
 446 244 469 251 490 261 c 5
 500 261 l 5
 487 191 l 5
 469 181 441 178 408 178 c 7
 360 178 312 209 312 298 c 6
 312 702 l 29
 372 702 l 29
 372 318 l 6xe0
350 384 m 1
 204 342 152.056640625 295 132 241 c 1
 111 241 l 1
 81 286 l 1
 102.713186164 353 168 400 340 455 c 1
 350 384 l 1
317 468 m 1xd0
 317 516.821289062 275.931640625 540.7265625 163 588 c 2
 120 606 l 1
 120 666 l 1
 138 666 l 1
 190 644 l 2
 289.3671875 601.959960938 362 566.779296875 362 468 c 1
 317 468 l 1xd0
EndSplineSet
EndChar
StartChar: a.ini
Encoding: 65544 -1 23
Width: 480
Flags: W
HStem: 178 66<42 88.1884 370.638 562.029> 682 20G<100 165.273 292 352>
VStem: 292 60<263.819 318 468 702> 297 45<353.876 568.223>
LayerCount: 2
Fore
SplineSet
437.974609375 178 m 7xe0
 357.905273438 178 292 209 292 298 c 6
 292 702 l 5
 352 702 l 5
 352 318 l 6
 352 266 381.9921875 244 445.474609375 244 c 7
 500.083007812 244 543.55078125 250.5 565 261 c 5
 575 261 l 5
 562 191 l 5
 543.943359375 179.11328125 498.041992188 178 437.974609375 178 c 7xe0
62 182 m 1
 42 182 l 1
 42 247 l 1
 211 300 297 405.71035399 297 468 c 3
 297 512.332310829 266.362051222 538.360071582 143 590 c 2
 100 608 l 1
 100 668 l 1
 118 668 l 1
 170 646 l 2
 275.442869256 601.389555315 342 568.22250224 342 468 c 3xd0
 342 353.875976562 253 242 62 182 c 1
EndSplineSet
EndChar
StartChar: a.mark
Encoding: 65537 -1 16
Width: 0
Flags: W
HStem: 634 153
VStem: 86 132
AnchorPoint: "top" 168 634 mark 0
LayerCount: 2
Fore
SplineSet
86 768 m 29
 86 787 l 29
 161 787 l 29
 218 640 l 29
 218 634 l 29
 175 634 l 29
 86 768 l 29
EndSplineSet
EndChar
StartChar: a.mid
Encoding: 65545 -1 24
Width: 510
Flags: W
HStem: 178 66<400.638 592.029> 191 70<85 149.294> 682 20G<130 195.273 322 382>
VStem: 322 60<263.819 318 468 702> 327 45<315.602 566.78>
LayerCount: 2
Fore
SplineSet
467.974609375 178 m 3xb0
 387.905273438 178 322 209 322 298 c 2
 322 702 l 1
 382 702 l 1
 382 318 l 2
 382 266 411.9921875 244 475.474609375 244 c 3xb0
 530.083007812 244 573.55078125 250.5 595 261 c 1
 605 261 l 1
 592 191 l 1x70
 573.943359375 179.11328125 528.041992188 178 467.974609375 178 c 3xb0
82 191 m 1x68
 72 202 l 1
 85 261 l 1
 198 286 327 375.994565378 327 468 c 3
 327 516.821764679 285.931891394 540.726184998 173 588 c 2
 130 606 l 1
 130 666 l 1
 148 666 l 1
 200 644 l 2
 299.367628607 601.959849435 372 566.779593675 372 468 c 3
 372 315.602493459 230 222 82 191 c 1x68
EndSplineSet
Substitution2: "from_low-1" a.mid.low
EndChar
StartChar: a.mid.low
Encoding: 65585 -1 72
Width: 500
Flags: W
HStem: 178 66<390.638 582.029> 682 20G<120 185.273 312 372>
VStem: 312 60<263.819 384 455 702> 317 45<468 566.779>
LayerCount: 2
Fore
SplineSet
457.974609375 178 m 3xe0
 377.905273438 178 312 209 312 298 c 2
 312 702 l 1
 372 702 l 1
 372 318 l 2
 372 266 401.9921875 244 465.474609375 244 c 3
 520.083007812 244 563.55078125 250.5 585 261 c 1
 595 261 l 1
 582 191 l 1
 563.943359375 179.11328125 518.041992188 178 457.974609375 178 c 3xe0
350 384 m 1
 204 342 152.056640625 295 132 241 c 1
 111 241 l 1
 81 286 l 1
 102.713186164 353 168 400 340 455 c 1
 350 384 l 1
317 468 m 1xd0
 317 516.821289062 275.931640625 540.7265625 163 588 c 2
 120 606 l 1
 120 666 l 1
 138 666 l 1
 190 644 l 2
 289.3671875 601.959960938 362 566.779296875 362 468 c 1
 317 468 l 1xd0
EndSplineSet
EndChar
StartChar: b.fin
Encoding: 65549 -1 28
Width: 1050
Flags: W
HStem: -120 66<643.691 826.426> 182 66<143.521 550> 414 60<151.506 258.053>
VStem: 74 60<248.486 396.027> 275 62<281.491 396.856> 504 62<32.8778 182 248 470> 504 46<182 248> 965 61<132.703 261>
AnchorPoint: "top" 217 554 basechar 0
AnchorPoint: "bottom" 270 1 basechar 0
LayerCount: 2
Back
SplineSet
545 194 m 0
 546 19.962890625 610 -54 734 -54 c 7
 896 -54 954 106 965 261 c 5
 1026 261 l 5
 1026 241 l 5
 1013.8671875 58 923 -120 728 -120 c 7
 574 -120 484 -33.623046875 483 186 c 0
 483 319.541992188 492.888671875 422 500 470 c 1
 562 470 l 1
 562 446 l 1
 554 385 545 281.043945312 545 194 c 0
EndSplineSet
Fore
SplineSet
728 -120 m 3xfd
 573 -120 504 -23.623046875 504 146 c 3
 504 279.541992188 504 355.091796875 504 470 c 25
 566 470 l 25
 566 358.086914062 566 241.043945312 566 154 c 3
 566 29.962890625 609 -54 734 -54 c 3
 896 -54 954 106 965 261 c 1
 1026 261 l 1
 1026 241 l 1
 1013.8671875 58 923 -120 728 -120 c 3xfd
74 333 m 3
 74 421 131 474 209 474 c 3
 285 474 337 430 337 348 c 3
 337 263 271 233 212 213 c 1
 153 228 l 1
 207 235 275 277 275 338 c 3
 275 389 247 414 205 414 c 3
 165 414 134 391 134 335 c 3
 134 286 144 264 155 248 c 1
 334 248 471 248 553 248 c 1
 550 182 l 1xfb
 449 182 281 182 115 182 c 1
 89 218 74 266 74 333 c 3
EndSplineSet
EndChar
StartChar: b.mid
Encoding: 65548 -1 27
Width: 980
Flags: W
HStem: -120 66<643.264 822.997> 182 66<143.521 550> 266 20G<1032.11 1092.78> 414 60<151.506 258.053>
VStem: 74 60<248.486 396.027> 275 62<281.491 396.856> 504 62<32.8778 182 248 470> 504 46<182 248>
AnchorPoint: "top" 217 554 basechar 0
AnchorPoint: "bottom" 270 1 basechar 0
LayerCount: 2
Fore
SplineSet
727 -120 m 3xfe
 573 -120 504 -23.623046875 504 146 c 3
 504 279.541992188 504 355.091796875 504 470 c 25
 566 470 l 25
 566 358.086914062 566 241.043945312 566 154 c 3
 566 29.962890625 609 -54 733 -54 c 3
 895 -54 1005.21582031 131 1059 286 c 1
 1079 286 l 1
 1110 241 l 1
 1038 76 922 -120 727 -120 c 3xfe
74 333 m 3
 74 421 131 474 209 474 c 3
 285 474 337 430 337 348 c 3
 337 263 271 233 212 213 c 1
 153 228 l 1
 207 235 275 277 275 338 c 3
 275 389 247 414 205 414 c 3
 165 414 134 391 134 335 c 3
 134 286 144 264 155 248 c 1
 334 248 471 248 553 248 c 1
 550 182 l 1xfd
 449 182 281 182 115 182 c 1
 89 218 74 266 74 333 c 3
EndSplineSet
EndChar
StartChar: c.fin
Encoding: 65550 -1 29
Width: 750
Flags: W
HStem: 178 66<171.565 434.54> 450 104G<75 135 637 716>
VStem: 75 60<279.486 470> 655 61<477.516 554>
AnchorPoint: "tail" 534 248 basechar 0
AnchorPoint: "top" 303 554 basechar 0
AnchorPoint: "bottom" 308 -78 basechar 0
LayerCount: 2
Fore
SplineSet
75 343 m 2
 75 470 l 1
 135 470 l 1
 135 353 l 2
 135 252 193.799804688 244 319.400390625 244 c 3
 449.120117188 244 619 334 655 554 c 1
 716 554 l 1
 716 534 l 1
 681 304 501.0390625 178 314.599609375 178 c 3
 171.400390625 178 75 200 75 343 c 2
359 54 m 1
 324 2 l 1
 304 2 l 1
 262 51 l 1
 297 103 l 1
 319 103 l 1
 359 54 l 1
EndSplineSet
EndChar
StartChar: d.fin
Encoding: 65574 -1 58
Width: 510
Flags: W
HStem: 178 66<369.043 477.087> 190.999 70.001<84.999 133.409> 627 64<160 272.802> 642 64<160.77 351.312>
VStem: 302 60<249.784 400.251> 371 66<505.145 620.944>
AnchorPoint: "top" 277 770 basechar 0
AnchorPoint: "bottom" 274 87 basechar 0
LayerCount: 2
Fore
SplineSet
263.90625 450 m 1x4c
 235.786272321 252 171.712983766 203.435353963 82 190.999023438 c 1
 70 196 l 1
 84.9990234375 261 l 1
 166 287.349405245 185.920057091 316 196.241210938 444 c 1
 263.90625 450 l 1x4c
362 318 m 3
 362 260.859375 374 244 405 244 c 3x8c
 436 244 459 251 480 261 c 1
 490 261 l 1x4c
 477 191 l 1
 459 181 431 178 398 178 c 3x8c
 350 178 302 197.977539062 302 298 c 3
 302 368.075195312 294 409 265 405 c 1
 264 448 l 1
 345 461 362 410.038085938 362 318 c 3
200.000976562 400 m 1
 181 400 l 1
 181 466 l 1
 301 466 371 486 371 562 c 3
 371 616 344 642 277 642 c 3x1c
 256 642 197 637 173 627 c 1
 160 627 l 1
 160 691 l 1x2c
 188 701 249 706 274 706 c 3x1c
 378 706 437 663.005859375 437 561 c 3
 437 442 309 400 200.000976562 400 c 1
EndSplineSet
Substitution2: "from_low-1" d.fin.low
EndChar
StartChar: d.fin.low
Encoding: 65590 -1 79
Width: 500
Flags: W
HStem: 178 66<359.043 467.087> 627 64<150 262.802> 642 64<150.77 341.312>
VStem: 292 60<249.784 402.009> 361 66<508.718 620.944>
AnchorPoint: "bottom" 264 88 basechar 0
AnchorPoint: "top" 267 770 basechar 0
LayerCount: 2
Fore
SplineSet
352 318 m 3x98
 352 260.859375 364 244 395 244 c 3
 426 244 449 251 470 261 c 1
 480 261 l 1
 467 191 l 1
 449 181 421 178 388 178 c 3
 340 178 292 197.977539062 292 298 c 3
 292 368.075195312 284 409 255 405 c 1
 254 448 l 1
 335 461 352 410.038085938 352 318 c 3x98
128.000976562 241 m 5
 51 195 l 5
 67 261 l 5
 143.932617188 506 361 431.904296875 361 562 c 3
 361 616 334 642 267 642 c 3xb8
 246 642 187 637 163 627 c 1
 150 627 l 1
 150 691 l 1xd8
 178 701 239 706 264 706 c 3xb8
 368 706 427 663.005859375 427 561 c 3
 427 379.864257812 190.568359375 470 128.000976562 241 c 5
186.241210938 444 m 1025
EndSplineSet
EndChar
StartChar: d.ini
Encoding: 65575 -1 59
Width: 420
Flags: W
HStem: 178 66<292.147 502.024> 400 66<91 171.312> 627 64<70 182.802> 642 64<70.7698 261.312>
VStem: 212 60<264.172 403.795> 281 66<505.145 620.944>
AnchorPoint: "top" 187 770 basechar 0
AnchorPoint: "bottom" 184 87 basechar 0
LayerCount: 2
Fore
SplineSet
272 318 m 3xcc
 272 260.859375 314 244 365 244 c 3
 426 244 484 251 505 261 c 1
 515 261 l 1
 502 191 l 1
 484 181 421 178 358 178 c 3
 300 178 212 197.977539062 212 298 c 3
 212 368.075195312 204 411 175 407 c 1
 174 448 l 1
 255 461 272 410.038085938 272 318 c 3xcc
110.000976562 400 m 1
 91 400 l 1
 91 466 l 1
 211 466 281 486 281 562 c 3
 281 616 254 642 187 642 c 3xdc
 166 642 107 637 83 627 c 1
 70 627 l 1
 70 691 l 1xec
 98 701 159 706 184 706 c 3xdc
 288 706 347 663.005859375 347 561 c 3
 347 442 219 400 110.000976562 400 c 1
EndSplineSet
EndChar
StartChar: d.mid
Encoding: 65576 -1 60
Width: 510
Flags: W
HStem: 178 66<382.147 592.024> 190.999 70.001<84.999 133.409> 627 64<160 272.802> 642 64<160.77 351.312>
VStem: 302 60<264.172 400.251> 371 66<505.145 620.944>
AnchorPoint: "top" 277 770 basechar 0
AnchorPoint: "bottom" 274 87 basechar 0
LayerCount: 2
Back
SplineSet
302 295 m 7xcc
 302 355.075195312 287 355 265 352 c 5
 264 395 l 5
 325 405 362 367.038085938 362 315 c 7
 362 257.859375 396.145507812 244 475 244 c 7
 532.567382812 244 574 251 595 261 c 5
 605 261 l 5
 592 191 l 5
 574 181 528.298828125 178 468 178 c 7
 369.91796875 178 302 204.977539062 302 295 c 7xcc
EndSplineSet
Fore
SplineSet
263.90625 450 m 1x4c
 235.786272321 252 171.712983766 203.435353963 82 190.999023438 c 1
 70 196 l 1
 84.9990234375 261 l 1
 166 287.349405245 185.920057091 316 196.241210938 444 c 1
 263.90625 450 l 1x4c
362 318 m 3
 362 260.859375 404 244 455 244 c 3x8c
 516 244 574 251 595 261 c 1
 605 261 l 1x4c
 592 191 l 1
 574 181 511 178 448 178 c 3x8c
 390 178 302 197.977539062 302 298 c 3
 302 368.075195312 294 409 265 405 c 1
 264 448 l 1
 345 461 362 410.038085938 362 318 c 3
200.000976562 400 m 1
 181 400 l 1
 181 466 l 1
 301 466 371 486 371 562 c 3
 371 616 344 642 277 642 c 3x1c
 256 642 197 637 173 627 c 1
 160 627 l 1
 160 691 l 1x2c
 188 701 249 706 274 706 c 3x1c
 378 706 437 663.005859375 437 561 c 3
 437 442 309 400 200.000976562 400 c 1
EndSplineSet
Substitution2: "from_low-1" d.mid.low
EndChar
StartChar: d.mid.low
Encoding: 65589 -1 78
Width: 500
Flags: W
HStem: 178 66<372.147 582.024> 627 64<150 262.802> 642 64<150.77 341.312>
VStem: 292 60<264.172 402.009> 361 66<508.718 620.944>
AnchorPoint: "bottom" 264 88 basechar 0
AnchorPoint: "top" 267 770 basechar 0
LayerCount: 2
Back
SplineSet
200.000976562 400 m 5
 181 400 l 5
 181 466 l 5
 301 466 371 486 371 562 c 7
 371 616 344 642 277 642 c 7x2a
 256 642 197 637 173 627 c 5
 160 627 l 5
 160 691 l 5x32
 188 701 249 706 274 706 c 7
 378 706 437 663.005859375 437 561 c 7x2a
 437 442 309 400 200.000976562 400 c 5
250 366 m 1
 204 339 172 311 146.000976562 241 c 1
 69 195 l 1
 85 261 l 1
 120 369 158 381 183 400 c 1
 250 366 l 1
180.000976562 350 m 1
 161 350 l 1
 161 416 l 1
 241 416 331 416 331 482 c 3
 331 526 294 536 257 536 c 3x2a
 236 536 177 531 153 521 c 1
 140 521 l 1
 140 585 l 1x32
 168 595 229 600 254 600 c 3
 338 600 397 573.005859375 397 481 c 3x2a
 397 372 269 350 180.000976562 350 c 1
EndSplineSet
Fore
SplineSet
128.000976562 241 m 1xb8
 51 195 l 1
 67 261 l 1
 143.932617188 506 361 431.904296875 361 562 c 3
 361 616 334 642 267 642 c 3xb8
 246 642 187 637 163 627 c 1
 150 627 l 1
 150 691 l 1xd8
 178 701 239 706 264 706 c 3
 368 706 427 663.005859375 427 561 c 3
 427 379.864257812 190.568359375 470 128.000976562 241 c 1xb8
186.241210938 444 m 1025
352 318 m 3
 352 260.859375 394 244 445 244 c 3
 506 244 564 251 585 261 c 1
 595 261 l 1
 582 191 l 1
 564 181 501 178 438 178 c 3
 380 178 292 197.977539062 292 298 c 3
 292 368.075195312 284 409 255 405 c 1
 254 448 l 1
 335 461 352 410.038085938 352 318 c 3
EndSplineSet
EndChar
StartChar: e.fin
Encoding: 65553 -1 32
Width: 280
Flags: W
HStem: 178 66<151.461 248.849> 450 258G<-11 69.5859 82 142 157.233 237> 558 21G<64.4122 161.588>
VStem: 82 60<251.33 470>
LayerCount: 2
Fore
SplineSet
185.974609375 178 m 3x90
 134 178 82 202 82 298 c 2
 82 470 l 1
 142 470 l 1
 142 308 l 2
 142 259 164 244 193.474609375 244 c 3
 214 244 234.55078125 247.5 247 255 c 1
 257 255 l 1
 252 185 l 1
 236.943359375 180 213 178 185.974609375 178 c 3x90
-11 689 m 1
 -11 708 l 1
 60 708 l 1
 113 597.420898438 l 1
 167 708 l 1
 237 708 l 1xd0
 237 689 l 1
 148 558 l 1
 78 558 l 1xb0
 -11 689 l 1
EndSplineSet
EndChar
StartChar: e.ini
Encoding: 65551 -1 30
Width: 340
Flags: W
HStem: 178 66<185.886 422.01> 450 258G<8 88.5859 102 162 176.233 256> 558 21G<83.4122 180.588>
VStem: 102 60<267.291 470>
LayerCount: 2
Fore
SplineSet
267.974609375 178 m 3x90
 172.905273438 178 102 209 102 298 c 2
 102 470 l 1
 162 470 l 1
 162 318 l 2
 162 266 201.9921875 244 275.474609375 244 c 3
 350.083007812 244 403.55078125 250.5 425 261 c 1
 435 261 l 1
 422 191 l 1
 403.943359375 181 345 178 267.974609375 178 c 3x90
8 689 m 1
 8 708 l 1
 79 708 l 1
 132 597.420898438 l 1
 186 708 l 1
 256 708 l 1xd0
 256 689 l 1
 167 558 l 1
 97 558 l 1xb0
 8 689 l 1
EndSplineSet
EndChar
StartChar: e.mark
Encoding: 65538 -1 17
Width: 0
Flags: W
HStem: 634 153
VStem: 42 248
AnchorPoint: "top" 168 634 mark 0
LayerCount: 2
Back
SplineSet
9 765 m 5
 9 784 l 5
 80 784 l 5
 133 673.420898438 l 5
 187 784 l 5
 257 784 l 5
 257 765 l 5
 168 634 l 5
 98 634 l 5
 9 765 l 5
EndSplineSet
Fore
SplineSet
42 768 m 1
 42 787 l 1
 107 787 l 1
 166 676.420898438 l 1
 225 787 l 1
 290 787 l 1
 290 768 l 1
 201 634 l 1
 131 634 l 1
 42 768 l 1
EndSplineSet
EndChar
StartChar: e.mid
Encoding: 65552 -1 31
Width: 320
Flags: W
HStem: 178 66<165.886 402.01> 450 258G<-12 68.5859 82 142 156.233 236> 558 21G<63.4122 160.588>
VStem: 82 60<267.291 470>
LayerCount: 2
Fore
SplineSet
247.974609375 178 m 3x90
 152.905273438 178 82 209 82 298 c 2
 82 470 l 1
 142 470 l 1
 142 318 l 2
 142 266 181.9921875 244 255.474609375 244 c 3
 330.083007812 244 383.55078125 250.5 405 261 c 1
 415 261 l 1
 402 191 l 1
 383.943359375 181 325 178 247.974609375 178 c 3x90
-12 689 m 1
 -12 708 l 1
 59 708 l 1
 112 597.420898438 l 1
 166 708 l 1
 236 708 l 1xd0
 236 689 l 1
 147 558 l 1
 77 558 l 1xb0
 -12 689 l 1
EndSplineSet
EndChar
StartChar: f.below
Encoding: 65569 -1 49
Width: 930
Flags: W
HStem: -120 66<299.813 541.523> 412 60<187.421 277.939>
VStem: 288 60<292.605 402.219>
AnchorPoint: "bottom" 408 -234 basechar 0
LayerCount: 2
Fore
SplineSet
408 -120 m 3
 221.166992188 -120 74 1.2392578125 74 216 c 3
 74 385 156.897460938 472 236 472 c 3
 313.084960938 472 348 424.23046875 348 360 c 3
 348 264 266 189 138 178 c 5
 101 238 l 1
 224 245 288 286 288 350 c 3
 288 390.8046875 267.19921875 412 231 412 c 3
 180.950195312 412 136 338 136 224 c 3
 136 57.7646484375 245.952148438 -54 414 -54 c 3
 598.043945312 -54 755 66 835 311 c 1
 852 311 l 1
 880 241 l 1
 797 20 628.145507812 -120 408 -120 c 3
262 -193 m 1
 227 -245 l 1
 207 -245 l 1
 165 -196 l 1
 200 -144 l 1
 222 -144 l 1
 262 -193 l 1
EndSplineSet
EndChar
StartChar: f.fin
Encoding: 65556 -1 35
Width: 930
Flags: W
HStem: -120 66<299.813 544.39> 412 60<187.421 277.939>
VStem: 288 60<292.605 402.219> 815 65<210.462 258>
AnchorPoint: "top" 254 554 basechar 0
LayerCount: 2
Back
SplineSet
408 -120 m 7
 221.166992188 -120 74 1.2392578125 74 216 c 7
 74 385 156.897460938 472 236 472 c 7
 313.084960938 472 348 424.23046875 348 360 c 7
 348 264 267 189 139 178 c 5
 101 238 l 5
 224 245 288 286 288 350 c 7
 288 390.8046875 267.19921875 412 231 412 c 7
 180.950195312 412 136 338 136 224 c 7
 136 57.7646484375 245.952148438 -54 414 -54 c 7
 598.043945312 -54 755 66 835 311 c 5
 852 311 l 5
 880 241 l 5
 797 20 628.145507812 -120 408 -120 c 7
EndSplineSet
Fore
SplineSet
408 -120 m 3
 221.166992188 -120 74 1.2392578125 74 216 c 3
 74 385 156.897460938 472 236 472 c 3
 313.084960938 472 348 424.23046875 348 360 c 3
 348 264 266 189 138 178 c 5
 101 238 l 1
 224 245 288 286 288 350 c 3
 288 390.8046875 267.19921875 412 231 412 c 3
 180.950195312 412 136 338 136 224 c 3
 136 57.7646484375 245.952148438 -54 414 -54 c 3
 598.043945312 -54 742 69 815 258 c 1
 880 258 l 1
 880 241 l 1
 797 20 628.145507812 -120 408 -120 c 3
472 -223 m 1
 437 -275 l 1
 417 -275 l 1
 375 -226 l 1
 410 -174 l 1
 432 -174 l 1
 472 -223 l 1
EndSplineSet
Substitution2: "with_below-1" f.fin.below
EndChar
StartChar: f.mid
Encoding: 65555 -1 34
Width: 750
Flags: W
HStem: -120 66<299.813 541.523> 412 60<187.421 277.939>
VStem: 288 60<292.605 402.219>
AnchorPoint: "top" 254 554 basechar 0
LayerCount: 2
Fore
SplineSet
408 -120 m 3
 221.166992188 -120 74 1.2392578125 74 216 c 3
 74 385 156.897460938 472 236 472 c 3
 313.084960938 472 348 424.23046875 348 360 c 3
 348 264 266 189 138 178 c 5
 101 238 l 1
 224 245 288 286 288 350 c 3
 288 390.8046875 267.19921875 412 231 412 c 3
 180.950195312 412 136 338 136 224 c 3
 136 57.7646484375 245.952148438 -54 414 -54 c 3
 598.043945312 -54 755 66 835 311 c 1
 852 311 l 1
 880 241 l 1
 797 20 628.145507812 -120 408 -120 c 3
472 -223 m 1
 437 -275 l 1
 417 -275 l 1
 375 -226 l 1
 410 -174 l 1
 432 -174 l 1
 472 -223 l 1
EndSplineSet
Substitution2: "with_below-1" f.mid.below
EndChar
StartChar: h.fin
Encoding: 65588 -1 77
Width: 470
Flags: W
HStem: 470 98G<82 142 279.196 342>
VStem: 82 60<265.75 470> 129 66<-54.4585 103.655> 356 60<294.388 472.304>
AnchorPoint: "tail" 232 -149 basechar 0
AnchorPoint: "top" 197 702 basechar 0
AnchorPoint: "bottom" 157 -178 basechar 0
LayerCount: 2
Fore
SplineSet
289 588 m 1xd0
 306 588 l 1
 378 546 416 492.106445312 416 375 c 3
 416 237 302 178 228 178 c 3
 146.65234375 178 82 206 82 330 c 2
 82 470 l 1
 142 470 l 1
 142 340 l 2
 142 261 176.6953125 244 233 244 c 3
 281 244 356 273.979492188 356 371 c 3
 356 452.498046875 330 506 264 537 c 9
 289 588 l 1xd0
300 198 m 5
 218 133.408203125 195 74.056640625 195 5 c 3
 195 -45.3115234375 235 -82 278 -97 c 1
 278 -111 l 1
 232 -149 l 1
 174 -125 129 -77.3349609375 129 2 c 3xb0
 129 81.005859375 160 155.444444444 250 238 c 1
 300 198 l 5
EndSplineSet
Substitution2: "from_low-1" h.fin.low
EndChar
StartChar: h.fin.low
Encoding: 65613 -1 146
Width: 490
Flags: W
HStem: 178 66<163.957 270.694> 470 98G<82 142 279.196 342>
VStem: 82 60<265.75 470> 218 66<-52.3476 131.59> 356 60<294.388 472.304>
AnchorPoint: "bottom" 242 -178 basechar 0
AnchorPoint: "top" 197 702 basechar 0
AnchorPoint: "tail" 317 -149 basechar 0
LayerCount: 2
Fore
SplineSet
289 588 m 1
 306 588 l 1
 378 546 416 492.106445312 416 375 c 3
 416 237 302 178 228 178 c 3
 146.65234375 178 82 206 82 330 c 2
 82 470 l 1
 142 470 l 1
 142 340 l 2
 142 261 176.6953125 244 233 244 c 3
 281 244 356 273.979492188 356 371 c 3
 356 452.498046875 330 506 264 537 c 9
 289 588 l 1
370 244 m 1
 302 148 284 91.056640625 284 14 c 7
 284 -43.3115234375 327 -84 363 -97 c 1
 363 -111 l 1
 317 -149 l 1
 260 -121 218 -69.3349609375 218 14 c 3
 218 93.005859375 239 163 318 267 c 1
 370 244 l 1
EndSplineSet
EndChar
StartChar: i.fin
Encoding: 65543 -1 22
Width: 490
Flags: W
HStem: 178 67<161.149 271.549> 450 20G<82 142 346 406>
VStem: 82 60<263.219 470> 129 66<-95.6574 1.99344> 346 60<146 470>
AnchorPoint: "tail" 222 -178 basechar 0
LayerCount: 2
Back
SplineSet
168 63 m 13
 181 118 l 5
 199 118 l 5x7c
 247 83 l 5
 234 28 l 21
 216 28 l 5
 168 63 l 13
EndSplineSet
Fore
SplineSet
264 109 m 2xd8
 346 146 l 1
 346 470 l 1
 406 470 l 17
 406 95 l 1
 255 48 195 7 195 -49 c 3
 195 -84 226 -111 268 -126 c 1
 268 -140 l 1
 222 -178 l 1
 162 -148 129 -113 129 -51 c 3
 129 20.2041015625 185.505745706 73.5818608674 264 109 c 2xd8
82 470 m 1xe8
 142 470 l 1
 142 356 l 2
 142 276 165 245 203 245 c 3
 251 245 305 278 358 353 c 1
 398 329 l 1
 354 253 272 178 198 178 c 3
 122 178 82 212 82 346 c 2
 82 470 l 1xe8
EndSplineSet
Substitution2: "from_low-1" i.fin.low
EndChar
StartChar: i.fin.low
Encoding: 65614 -1 147
Width: 490
Flags: W
HStem: 178 67<161.149 271.549> 450 20G<82 142 346 406>
VStem: 82 60<263.219 470> 189 66<-95.9636 15.9006> 346 60<143 470>
AnchorPoint: "tail" 282 -178 basechar 0
LayerCount: 2
Fore
SplineSet
288 108 m 2
 346 143 l 1
 346 470 l 1
 406 470 l 17
 406 95 l 1
 287 48 255 7 255 -49 c 3
 255 -84 286 -111 328 -126 c 1
 328 -140 l 1
 282 -178 l 1
 222 -148 189 -108 189 -46 c 3
 189 15.2041015625 220.606987327 67.3318026973 288 108 c 2
82 470 m 1
 142 470 l 1
 142 356 l 2
 142 276 165 245 203 245 c 3
 251 245 305 278 358 353 c 1
 398 329 l 1
 354 253 272 178 198 178 c 3
 122 178 82 212 82 346 c 2
 82 470 l 1
EndSplineSet
EndChar
StartChar: i.mark
Encoding: 65539 -1 18
Width: 0
Flags: W
HStem: -230 35<213.111 247.962>
VStem: 102 105<-133.428 -54.4704>
AnchorPoint: "bottom" 154 -48 mark 0
LayerCount: 2
Back
SplineSet
94 -135 m 7
 94 -98.9287109375 119 -71 157.542480469 -71 c 7
 196.084960938 -71 218 -96 218 -123 c 7
 218 -152.728515625 203 -169 185 -176.317382812 c 5
 185 -180 l 5
 197 -191 224 -198 258 -200 c 5
 258 -230 l 5
 143 -230 94 -188.008789062 94 -135 c 7
EndSplineSet
Fore
SplineSet
102 -110 m 3
 102 -71 121 -45 153 -45 c 3
 186 -45 207 -67 207 -89 c 3
 207 -114 195 -129 182 -135 c 1
 179 -139 l 1
 193 -172 222 -191 261 -195 c 5
 261 -204 l 1
 243 -230 l 1
 160 -222 102 -169 102 -110 c 3
EndSplineSet
EndChar
StartChar: j.fin
Encoding: 65596 -1 86
Width: 660
Flags: W
HStem: 178 66<531.461 628.849> 450 20G<462 522> 623 64<21 132.129> 642 64<21.9911 202.777>
VStem: 241 66<391.914 601.085> 462 60<251.33 308 416 470> 462 42<280.832 416>
AnchorPoint: "bottom" 330 0 basechar 0
AnchorPoint: "top" 317 770 basechar 0
LayerCount: 2
Fore
SplineSet
565.974609375 178 m 3xcc
 514 178 462 202 462 298 c 2
 462 470 l 1
 522 470 l 1
 522 308 l 2
 522 259 544 244 573.474609375 244 c 3
 594 244 614.55078125 247.5 627 255 c 1
 637 255 l 1
 632 185 l 1
 616.943359375 180 593 178 565.974609375 178 c 3xcc
243 386 m 1
 364 249 l 1
 405 261 460 335 464 446 c 1
 504 416 l 1xca
 500 273 423 194 362 178 c 1
 342 178 l 1
 202 332 l 1
 243 386 l 1
82 191 m 1
 70 196 l 1
 85 261 l 1
 226 313 241 449.673828125 241 512 c 3
 241 602.083007812 200.03125 642 137 642 c 3xd8
 98 642 68 634 34 623 c 1
 21 623 l 1
 21 687 l 1xe8
 59 699 94 706 134 706 c 3xd8
 231.064453125 706 307 649.463867188 307 511 c 3
 307 429 285 238 82 191 c 1
EndSplineSet
Substitution2: "from_low-1" j.fin.low
EndChar
StartChar: j.fin.low
Encoding: 65598 -1 90
Width: 580
Flags: W
HStem: 178 66<451.461 548.849> 450 20G<382 442> 633 64<-89 -7.40262> 642 64<-88.2433 60.1105>
VStem: 111 66<381.916 582.409> 382 60<251.33 308 416 470> 382 42<280.832 416>
AnchorPoint: "top" 237 770 basechar 0
AnchorPoint: "bottom" 250 0 basechar 0
LayerCount: 2
Fore
SplineSet
485.974609375 178 m 3xcc
 434 178 382 202 382 298 c 2
 382 470 l 1
 442 470 l 1
 442 308 l 2
 442 259 464 244 493.474609375 244 c 3
 514 244 534.55078125 247.5 547 255 c 1
 557 255 l 1
 552 185 l 1
 536.943359375 180 513 178 485.974609375 178 c 3xcc
163 386 m 1
 284 249 l 1
 325 261 380 335 384 446 c 1
 424 416 l 1xca
 420 273 343 194 282 178 c 1
 262 178 l 1
 103 352 l 1
 163 386 l 1
132 241 m 1
 113.999023438 242 l 1
 81 286 l 1
 102.092017983 360 111 419.673828125 111 472 c 3
 111 592.083007812 60.03125 642 -3 642 c 3xd8
 -29 642 -52 640 -76 633 c 1
 -89 633 l 1
 -89 697 l 1xe8
 -61 704 -36 706 -6 706 c 3xd8
 91.064453125 706 177 649.463867188 177 471 c 3
 177 389 164 318 132 241 c 1
EndSplineSet
EndChar
StartChar: j.ini
Encoding: 65594 -1 84
Width: 680
Flags: W
HStem: 178 66<579.946 762.029> 450 20G<502 562> 623 64<61 175.178> 642 64<61.994 242.343>
VStem: 281 66<414.654 602.196> 502 60<263.819 318 416 470> 502 42<293.871 416>
AnchorPoint: "bottom" 380 0 basechar 0
AnchorPoint: "top" 357 770 basechar 0
LayerCount: 2
Fore
SplineSet
283 386 m 5xca
 404 249 l 5
 445 261 500 335 504 446 c 5
 544 416 l 5
 540 273 463 194 402 178 c 5
 382 178 l 5
 223 352 l 5
 283 386 l 5xca
637.974609375 178 m 3
 567.905273438 178 502 209 502 298 c 2
 502 470 l 1
 562 470 l 1
 562 318 l 2xcc
 562 266 591.9921875 244 645.474609375 244 c 3
 700.083007812 244 743.55078125 250.5 765 261 c 1
 775 261 l 1
 762 191 l 1
 743.943359375 179.11328125 698.041992188 178 637.974609375 178 c 3
73 182.193359375 m 1
 58 180.818359375 l 1
 58 248.317382812 l 1
 257 331 281 438.943359375 281 528 c 3
 281 597.1015625 240.03125 642 177 642 c 3xd8
 138 642 108 634 74 623 c 1
 61 623 l 1
 61 687 l 1xe8
 99 699 142 706 182 706 c 3xd8
 279.064453125 706 347 653.00390625 347 531 c 3
 347 425.98046875 312 274 73 182.193359375 c 1
EndSplineSet
EndChar
StartChar: j.mid.low
Encoding: 65597 -1 89
Width: 560
Flags: W
HStem: 178 66<459.946 642.029> 450 20G<382 442> 633 64<-89 -7.40262> 642 64<-88.2433 60.1105>
VStem: 111 66<381.916 582.409> 382 60<263.819 318 416 470> 382 42<293.871 416>
AnchorPoint: "top" 237 770 basechar 0
AnchorPoint: "bottom" 250 0 basechar 0
LayerCount: 2
Fore
SplineSet
163 386 m 1xca
 284 249 l 1
 325 261 380 335 384 446 c 1
 424 416 l 1
 420 273 343 194 282 178 c 1
 262 178 l 1
 103 352 l 1
 163 386 l 1xca
517.974609375 178 m 3
 447.905273438 178 382 209 382 298 c 2
 382 470 l 1
 442 470 l 1
 442 318 l 2xcc
 442 266 471.9921875 244 525.474609375 244 c 3
 580.083007812 244 623.55078125 250.5 645 261 c 1
 655 261 l 1
 642 191 l 1
 623.943359375 179.11328125 578.041992188 178 517.974609375 178 c 3
132 241 m 1
 113.999023438 242 l 1
 81 286 l 1
 102.091796875 360 111 419.673828125 111 472 c 3
 111 592.083007812 60.03125 642 -3 642 c 3xd8
 -29 642 -52 640 -76 633 c 1
 -89 633 l 1
 -89 697 l 1xe8
 -61 704 -36 706 -6 706 c 3xd8
 91.064453125 706 177 649.463867188 177 471 c 3
 177 389 164 318 132 241 c 1
EndSplineSet
EndChar
StartChar: k.fin
Encoding: 65601 -1 93
Width: 430
Flags: W
HStem: 450 20G<82 148>
VStem: 82 66<255.957 470> 119 66<-57.8315 84.6279>
AnchorPoint: "top" 197 554 basechar 0
AnchorPoint: "bottom" 149 -178 basechar 0
AnchorPoint: "tail" 232 -148 basechar 0
LayerCount: 2
Fore
SplineSet
310 189 m 5xa0
 214 126 185 58.0087890625 185 1 c 7
 185 -46.169921875 211 -78 278 -88 c 5
 278 -102 l 5
 232 -148 l 5
 157 -120 119 -70.326171875 119 5 c 7
 119 82.05859375 162 140 232 214 c 5
 310 189 l 5xa0
223 178 m 7
 131.950562879 178 82 216 82 303 c 6
 82 470 l 5
 148 470 l 5
 148 311 l 6xc0
 148 250 190 238 223 238 c 7
 264 238 330 252 365 281 c 5
 375 281 l 5
 362 211 l 5
 336 192 282 178 223 178 c 7
EndSplineSet
Substitution2: "from_low-1" k.fin.low
EndChar
StartChar: k.fin.low
Encoding: 65615 -1 148
Width: 470
Flags: W
HStem: 178 60<164.724 266.524> 450 20G<82 148>
VStem: 82 66<255.957 470> 199 66<-47.2785 111.511>
AnchorPoint: "tail" 317 -148 basechar 0
AnchorPoint: "bottom" 234 -178 basechar 0
AnchorPoint: "top" 197 554 basechar 0
LayerCount: 2
Fore
SplineSet
380 213 m 1
 277 140 265 69.0634765625 265 6 c 3
 265 -38.169921875 306 -79 363 -88 c 5
 363 -102 l 5
 317 -148 l 5
 250 -124 199 -68.326171875 199 4 c 3
 199 87.005859375 222 156 302 238 c 1
 380 213 l 1
233 178 m 3
 126.950195312 178 82 216 82 303 c 2
 82 470 l 1
 148 470 l 1
 148 311 l 2
 148 250 190 238 233 238 c 3
 274 238 350 252 385 281 c 1
 395 281 l 1
 382 211 l 1
 356 192 292 178 233 178 c 3
EndSplineSet
EndChar
StartChar: l.fin
Encoding: 65557 -1 36
Width: 470
Flags: W
HStem: 261 60<248.606 333.442> 623 64<21 132.129> 642 64<21.9911 202.777>
VStem: 196 68<-78.5648 18.8335> 241 66<391.914 601.085> 345 65<150.254 249.31>
AnchorPoint: "bottom" 219 -178 basechar 0
AnchorPoint: "tail" 263 -149 basechar 0
AnchorPoint: "top" 127 769 basechar 0
LayerCount: 2
Back
SplineSet
250 241 m 3x4a
 205 241 166 226 123 201 c 1
 125 261 l 1x8a
 166 284 204 301 260 301 c 3
 316 301 370 275 370 200 c 0
 370 124.918945312 295.206054688 96.966796875 266 62.041015625 c 0
 248.879882812 41.568359375 247 19.2470703125 247 -2 c 3
 247 -30 277 -56 318 -74 c 1
 318 -88 l 1
 262 -126 l 1
 206 -91 179 -64 179 -8 c 3
 179 28.884765625 186.264648438 70.1279296875 230.118164062 110 c 0
 244.448242188 123.029296875 305.439453125 167.546875 305.439453125 200 c 3
 305.439453125 220.952148438 296.88671875 241 250 241 c 3x4a
69.0009765625 182 m 1
 50 182 l 1
 50 248 l 1
 174 298 231 365 231 441 c 3
 231 496 199 536 147 536 c 3xb8
 126 536 98 531 74 521 c 1
 61 521 l 1
 61 585 l 1xd8
 89 595 119 600 144 600 c 3xb8
 234 600 297 552 297 440 c 3
 297 331 195 242 69.0009765625 182 c 1
  Spiro
    69.001 182 v
    50 182 v
    50 248 v
    151.957 303.31 o
    211.669 368.365 o
    231 441 o
    220.798 490.032 o
    191.852 523.616 o
    147 536 o
    124.099 534.337 o
    98.9005 529.327 o
    74 521 v
    61 521 v
    61 585 v
    89.3789 593.327 o
    117.62 598.337 o
    144 600 o
    223.599 583.441 o
    277.371 531.188 o
    297 440 o
    265.948 338.095 o
    184.01 251.255 o
    0 0 z
  EndSpiro
301 161 m 1x98
 307 216 285 241 240.267578125 241 c 3
 195.53515625 241 156 226 113 201 c 1
 115 261 l 1
 156 284 194 301 250.00390625 301 c 3
 306.0078125 301 368 262.630859375 368 183 c 1
 368 157.779296875 365.154296875 128.525390625 354.16015625 112 c 1
 261 94 205 72.0107421875 205 31 c 3
 205 3 227 -13 268 -31 c 1
 278 -45 l 1
 222 -83 l 1
 166 -48 139 -21 139 35 c 3
 139 88.076171875 195 136.311523438 301 161 c 1x98
82 191 m 1
 69 195 l 1
 85 261 l 1
 159 289 161 375 161 421 c 3
 161 476 129 536 77 536 c 3xb8
 56 536 28 531 4 521 c 1
 -9 521 l 1
 -9 585 l 1xd8
 19 595 49 600 74 600 c 3xb8
 164 600 227 532 227 420 c 3
 227 310.889434623 200 209 82 191 c 1
EndSplineSet
Fore
SplineSet
410 210 m 3x94
 410 85.6787109375 264 59.0436800585 264 -44 c 3
 264 -63 288 -81 309 -96 c 1
 309 -110 l 1
 263 -149 l 1
 225 -123.75 196 -92 196 -47 c 3
 196 91.0036231408 345 111.994140625 345 210 c 3
 345 234 322 261 291 261 c 3
 230.791992188 261 193 246 144 216 c 1
 149 248 l 1
 188 292 243.991210938 321 299 321 c 3
 361 321 410 278 410 210 c 3x94
82 191 m 1
 70 196 l 1
 85 261 l 1
 226 313 241 449.673828125 241 512 c 3
 241 602.083007812 200.03125 642 137 642 c 3xac
 98 642 68 634 34 623 c 1
 21 623 l 1
 21 687 l 1xcc
 59 699 94 706 134 706 c 3
 231.064453125 706 307 649.463867188 307 511 c 3xac
 307 429 285 238 82 191 c 1
EndSplineSet
Substitution2: "from_low-1" l.fin.low
EndChar
StartChar: l.fin.low
Encoding: 65573 -1 54
Width: 380
Flags: W
HStem: 251 60<150.534 245.575> 633 64<-89 -7.40262> 642 64<-88.2433 60.1105>
VStem: 111 66<315.924 582.409> 156 66<-78.8125 18.7213> 255 65<132.165 241.19>
AnchorPoint: "bottom" 179 -178 basechar 0
AnchorPoint: "tail" 223 -149 basechar 0
AnchorPoint: "top" -13 770 basechar 0
LayerCount: 2
Back
SplineSet
240.100646529 54.0000016265 m 4x8c
 228.424464549 35.804518356 227 16.4952693068 227 -2 c 7
 227 -30 257 -56 298 -74 c 5
 298 -88 l 5
 242 -126 l 5
 186 -91 159 -64 159 -8 c 7
 159 22.1322739559 163.848454612 55.1736206792 189.533114466 87.9999969436 c 4
 215.353626814 121 286 162.719726562 286 202 c 7
 286 221.389648438 272.073728411 251 220.267578125 251 c 7
 171.989257812 251 147 236 125.000976562 197 c 5
 109 248 l 5
 148 292 174 311 230.00390625 311 c 7
 308.025390625 311 350 275 350 202 c 4
 350 118 264.057756582 91.3333693243 240.100646529 54.0000016265 c 4x8c
230 241 m 3x4a
 185 241 146 226 103 201 c 1
 105 261 l 1x8a
 146 284 184 301 240 301 c 3
 296 301 354 275 354 200 c 0
 354 124.918945312 275.206054688 96.966796875 246 62.041015625 c 0
 228.879882812 41.568359375 227 19.2470703125 227 -2 c 3
 227 -30 257 -56 298 -74 c 1
 298 -88 l 1
 242 -126 l 1
 186 -91 159 -64 159 -8 c 3
 159 28.884765625 166.264648438 70.1279296875 210.118164062 110 c 0
 224.448242188 123.029296875 289.439453125 167.546875 289.439453125 200 c 3
 289.439453125 220.952148438 276.88671875 241 230 241 c 3x4a
EndSplineSet
Fore
SplineSet
320 200 m 3x8c
 320 85.6787109375 222 30.02734375 222 -44 c 3
 222 -69 247 -82 269 -93 c 1
 269 -107 l 1
 223 -149 l 1
 185 -123.75 156 -92 156 -47 c 3
 156 76.015625 255 111.994140625 255 200 c 3
 255 219 242 251 201 251 c 3
 172 251 140 242 110 207 c 1
 94 248 l 1
 133 292 164 311 209 311 c 3
 271 311 320 273 320 200 c 3x8c
132 241 m 5
 113.999023438 242 l 5
 81 286 l 5
 102.092017983 360 111 419.673828125 111 472 c 7
 111 592.083007812 60.03125 642 -3 642 c 7xb4
 -29 642 -52 640 -76 633 c 5
 -89 633 l 5
 -89 697 l 5xd4
 -61 704 -36 706 -6 706 c 7
 91.064453125 706 177 649.463867188 177 471 c 7xb4
 177 389 164 318 132 241 c 5
EndSplineSet
EndChar
StartChar: long_vowel
Encoding: 65536 -1 15
Width: 360
Flags: W
HStem: 371 66<84.7337 220.035>
VStem: 0 65<246.137 351.47> 259 60<144.57 330.725>
LayerCount: 2
Fore
SplineSet
85 260 m 1
 61 237 l 1
 26 227 l 1
 8 247 0 273 0 314 c 3
 0 384 57 437 153 437 c 7
 257 437 319 372 319 248 c 3
 319 141 259 52 204 0 c 1
 136 0 l 25
 136 15 l 1
 212 77 259 163 259 242 c 3
 259 326 222 371 154 371 c 3
 87 371 65 335 65 305 c 3
 65 285 70 270 85 260 c 1
EndSplineSet
Substitution2: "with_below-1" long_vowel.tail.below
Substitution2: "from_low-1" long_vowel.low
Substitution2: "as_tail-1" long_vowel.tail
EndChar
StartChar: long_vowel.low
Encoding: 65611 -1 107
Width: 390
Flags: W
HStem: 319 66<163.097 264.775>
VStem: 304 60<55.5808 274.657>
LayerCount: 2
Fore
SplineSet
131 241 m 1
 100 242 l 1
 79 286 l 1
 101 349 147 385 208 385 c 3
 300 385 364 314 364 190 c 3
 364 47 315 -86 195 -178 c 1
 112 -178 l 25
 112 -163 l 1
 239 -86 304 59 304 184 c 3
 304 263 266 319 215 319 c 3
 184 319 151 300 131 241 c 1
EndSplineSet
EndChar
StartChar: long_vowel.tail.below
Encoding: 65612 -1 145
Width: 110
Flags: W
HStem: 18 60<200.229 312.919>
VStem: 333 66<-143.536 -2.49867>
AnchorPoint: "tail" 115 -70 mark 0
LayerCount: 2
Fore
SplineSet
399 -58 m 3
 399 -116.18359375 372 -164 317 -230 c 1
 250 -230 l 25
 250 -215 l 1
 312 -162 333 -115.087890625 333 -64 c 3
 333 -3.91015625 294 18 260 18 c 3
 223 18 183 -9 135 -70 c 1
 115 -70 l 25
 107 -19 l 1
 166 53 226.990234375 78 277 78 c 3
 343 78 399 21.3095703125 399 -58 c 3
EndSplineSet
EndChar
StartChar: long_vowel.tail
Encoding: 65542 -1 21
Width: 100
Flags: W
HStem: -27 60<164.698 280.141>
VStem: 293 66<-167.259 -39.3918>
AnchorPoint: "tail" 125 -80 mark 0
LayerCount: 2
Fore
SplineSet
359 -88 m 3
 359 -136.18359375 334 -186 307 -230 c 1
 240 -230 l 25
 240 -215 l 1
 271 -173 293 -135.087890625 293 -94 c 3
 293 -43.91015625 264 -27 230 -27 c 3
 193 -27 170 -42 125 -80 c 1
 115 -80 l 25
 107 -29 l 1
 152 11 196.990234375 33 247 33 c 3
 313 33 359 -18.6904296875 359 -88 c 3
EndSplineSet
EndChar
StartChar: m.fin
Encoding: 65579 -1 64
Width: 850
Flags: W
HStem: 170 66<152.549 529.623> 178 66<721.461 818.849> 414 60<146.506 253.053>
VStem: 69 60<260.564 396.027> 270 62<281.375 396.856> 652 60<251.33 308 361 470> 652 42<281.797 361>
AnchorPoint: "bottom" 223 87 basechar 0
AnchorPoint: "top" 206 554 basechar 0
LayerCount: 2
Fore
SplineSet
755.974609375 178 m 3x7c
 704 178 652 202 652 298 c 2
 652 470 l 1
 712 470 l 1
 712 308 l 2
 712 259 734 244 763.474609375 244 c 3
 784 244 804.55078125 247.5 817 255 c 1
 827 255 l 1
 822 185 l 1
 806.943359375 180 783 178 755.974609375 178 c 3x7c
110 205 m 1
 84 241 69 273.991210938 69 333 c 3
 69 421 126 474 204 474 c 3
 280 474 332 430 332 348 c 3
 332 263 266 233 207 213 c 1
 148 228 l 1
 202 234 270 277 270 338 c 3
 270 389 242 414 200 414 c 3
 160 414 129 391 129 335 c 3
 129 299.872070312 139 276 150 260 c 1
 208 241 288 236 390 236 c 3
 560 236 652 313 652 373 c 1xbc
 694 361 l 1
 694 244 578 170 382 170 c 3xba
 236 170 159 182 110 205 c 1
EndSplineSet
EndChar
StartChar: m.mid
Encoding: 65578 -1 63
Width: 830
Flags: W
HStem: 170 66<152.549 529.623> 178 66<729.946 912.029> 414 60<146.506 253.053>
VStem: 69 60<260.564 396.027> 270 62<281.375 396.856> 652 60<263.819 318 361 470> 652 42<244 361>
AnchorPoint: "top" 206 554 basechar 0
AnchorPoint: "bottom" 223 87 basechar 0
LayerCount: 2
Fore
SplineSet
787.974609375 178 m 3x7c
 717.905273438 178 652 209 652 298 c 2
 652 470 l 1
 712 470 l 1
 712 318 l 2
 712 266 741.9921875 244 795.474609375 244 c 3
 850.083007812 244 893.55078125 250.5 915 261 c 1
 925 261 l 1
 912 191 l 1
 893.943359375 179.11328125 848.041992188 178 787.974609375 178 c 3x7c
110 205 m 1
 84 241 69 273.991210938 69 333 c 3
 69 421 126 474 204 474 c 3
 280 474 332 430 332 348 c 3
 332 263 266 233 207 213 c 1
 148 228 l 1
 202 234 270 277 270 338 c 3
 270 389 242 414 200 414 c 3
 160 414 129 391 129 335 c 3
 129 299.872070312 139 276 150 260 c 1
 208 241 288 236 390 236 c 3
 560 236 652 313 652 373 c 1xbc
 694 361 l 1
 694 244 578 170 382 170 c 3xba
 236 170 159 182 110 205 c 1
EndSplineSet
EndChar
StartChar: n.fin
Encoding: 65580 -1 65
Width: 750
Flags: W
HStem: 178 66<171.565 434.54> 450 104G<75 135 637 716>
VStem: 75 60<279.486 470> 655 61<477.516 554>
AnchorPoint: "tail" 534 248 basechar 0
AnchorPoint: "top" 303 554 basechar 0
AnchorPoint: "bottom" 308 -78 basechar 0
LayerCount: 2
Fore
SplineSet
75 343 m 6
 75 470 l 5
 135 470 l 5
 135 353 l 6
 135 252 193.799804688 244 319.400390625 244 c 7
 449.120117188 244 619 334 655 554 c 5
 716 554 l 5
 716 534 l 5
 681 304 501.0390625 178 314.599609375 178 c 7
 171.400390625 178 75 200 75 343 c 6
289 55 m 1
 254 3 l 1
 234 3 l 1
 192 52 l 1
 227 104 l 1
 249 104 l 1
 289 55 l 1
439 55 m 1
 404 3 l 1
 384 3 l 1
 342 52 l 1
 377 104 l 1
 399 104 l 1
 439 55 l 1
EndSplineSet
EndChar
StartChar: o.fin
Encoding: 65560 -1 39
Width: 280
Flags: W
HStem: 178 66<151.461 248.849> 450 258G<82 142 186.701 267> 558 21G<-2 68.5 128 191.588> 704 46<-8 40.6269>
VStem: 41 66<620.052 702.243> 82 60<251.33 470>
LayerCount: 2
Fore
SplineSet
185.974609375 178 m 3x84
 134 178 82 202 82 298 c 2
 82 470 l 1
 142 470 l 1
 142 308 l 2
 142 259 164 244 193.474609375 244 c 3
 214 244 234.55078125 247.5 247 255 c 1
 257 255 l 1
 252 185 l 1
 236.943359375 180 213 178 185.974609375 178 c 3x84
-2 574 m 1
 22 612 41 652.895507812 41 677 c 3
 41 700 20 704 2 704 c 1
 -8 704 l 1
 -8 745 l 1
 10 748 25.443359375 750 54 750 c 3
 85 750 107 722 107 696 c 3
 107 660.985351562 89 620 48 558 c 1
 -2 558 l 1xb8
 -2 574 l 1
128 574 m 1
 197 708 l 1
 267 708 l 1xc0
 267 689 l 1
 178 558 l 1
 128 558 l 1
 128 574 l 1
EndSplineSet
EndChar
StartChar: o.ini
Encoding: 65558 -1 37
Width: 340
Flags: W
HStem: 178 66<185.886 422.01> 558 21G<18 88.5 148 211.588> 688 20G<102 162 206.701 287> 704 46<12 60.6269>
VStem: 61 66<620.052 702.243> 102 60<267.291 470>
LayerCount: 2
Fore
SplineSet
18 574 m 5xd8
 42 612 61 652.895507812 61 677 c 7
 61 700 40 704 22 704 c 5
 12 704 l 5
 12 745 l 5
 30 748 45.443359375 750 74 750 c 7
 105 750 127 722 127 696 c 7
 127 660.985351562 109 620 68 558 c 5
 18 558 l 5
 18 574 l 5xd8
148 574 m 5
 217 708 l 5
 287 708 l 5xe0
 287 689 l 5
 198 558 l 5
 148 558 l 5
 148 574 l 5
267.974609375 178 m 7
 172.905273438 178 102 209 102 298 c 6
 102 470 l 5
 162 470 l 5
 162 318 l 6xc4
 162 266 201.9921875 244 275.474609375 244 c 7
 350.083007812 244 403.55078125 250.5 425 261 c 5
 435 261 l 5
 422 191 l 5
 403.943359375 181 345 178 267.974609375 178 c 7
EndSplineSet
EndChar
StartChar: o.mark
Encoding: 65540 -1 19
Width: 0
Flags: W
HStem: 600 35<115.038 152.186>
VStem: 183 78<658.236 716.991>
AnchorPoint: "top" 168 600 mark 0
LayerCount: 2
Fore
SplineSet
261 711 m 3
 261 659 211 611.875976562 120 600 c 1
 102 626 l 1
 102 635 l 1
 147 642 174 660 183 688 c 5
 183 692 l 5
 170 698 156 716 156 741 c 3
 156 763 177 785 207 785 c 3
 239 785 261 760 261 711 c 3
EndSplineSet
EndChar
StartChar: o.mid
Encoding: 65559 -1 38
Width: 320
Flags: W
HStem: 178 66<165.886 402.01> 558 21G<-2 68.5 128 191.588> 688 20G<82 142 186.701 267> 704 46<-8 40.6269>
VStem: 41 66<620.052 702.243> 82 60<267.291 470>
LayerCount: 2
Fore
SplineSet
-2 574 m 1xd8
 22 612 41 652.895507812 41 677 c 3
 41 700 20 704 2 704 c 1
 -8 704 l 1
 -8 745 l 1
 10 748 25.443359375 750 54 750 c 3
 85 750 107 722 107 696 c 3
 107 660.985351562 89 620 48 558 c 1
 -2 558 l 1
 -2 574 l 1xd8
128 574 m 1
 197 708 l 1
 267 708 l 1xe0
 267 689 l 1
 178 558 l 1
 128 558 l 1
 128 574 l 1
247.974609375 178 m 7
 152.905273438 178 82 209 82 298 c 6
 82 470 l 5
 142 470 l 5
 142 318 l 6xc4
 142 266 181.9921875 244 255.474609375 244 c 7
 330.083007812 244 383.55078125 250.5 405 261 c 5
 415 261 l 5
 402 191 l 5
 383.943359375 181 325 178 247.974609375 178 c 7
EndSplineSet
EndChar
StartChar: q.fin.low
Encoding: 65616 -1 149
Width: 510
Flags: W
HStem: 178 66<197.815 379.845> 682 20G<260.5 365>
VStem: 70 66<300.765 457.74>
AnchorPoint: "top" 277 769 basechar 0
AnchorPoint: "bottom" 388 -115 basechar 0
AnchorPoint: "tail" 397 61 basechar 0
LayerCount: 2
Fore
SplineSet
440 197 m 5
 406.787109375 10 323 -101.999023438 200 -178 c 1
 186 -177.999023438 l 1
 186 -112 l 1
 264 -59.9990234375 362.326171875 52 384 217 c 5
 427 261 l 5
 440 197 l 5
346 702 m 1
 365 702 l 1
 365 636 l 1
 220 558 136 480.3046875 136 367 c 3
 136 292 207.198242188 244 280 244 c 3
 320.607421875 244 403 251 427 261 c 5
 440 261 l 5
 440 197 l 5
 412 187 336.190429688 178 283 178 c 3
 162.533203125 178 70 236 70 368 c 3
 70 513 175 604 346 702 c 1
EndSplineSet
EndChar
StartChar: r.fin
Encoding: 65564 -1 43
Width: 530
Flags: W
HStem: -154 67<74 192.839> 178 66<161.493 291.262> 450 20G<82 142 386 446>
VStem: 82 60<264.274 470> 386 60<105.051 231 356 470>
AnchorPoint: "bottom" 296 -178 basechar 0
AnchorPoint: "top" 263 554 basechar 0
AnchorPoint: "tail" 370 -27.3528 basechar 0
LayerCount: 2
Fore
SplineSet
82 470 m 1
 142 470 l 1
 142 326 l 2
 142 269 174 244 219 244 c 3
 288 244 386 317 386 396 c 1
 426 356 l 1
 405 247 295 178 214 178 c 3
 132 178 82 211 82 316 c 2
 82 470 l 1
74 -87 m 1
 212 -87 386 0 386 226 c 2
 386 470 l 1
 446 470 l 1
 446 231 l 2
 446 -48 256 -154 91 -154 c 1
 74 -154 l 1
 74 -87 l 1
EndSplineSet
Substitution2: "from_low-1" r.fin.low
EndChar
StartChar: r.fin.low
Encoding: 65617 -1 150
Width: 530
Flags: W
HStem: -154 67<154 240.031> 178 66<161.493 291.262> 450 20G<82 142 386 446>
VStem: 82 60<264.274 470> 386 60<83.8094 231 356 470>
AnchorPoint: "tail" 380 -27.3528 basechar 0
AnchorPoint: "top" 263 554 basechar 0
AnchorPoint: "bottom" 296 -178 basechar 0
LayerCount: 2
Fore
SplineSet
82 470 m 1
 142 470 l 1
 142 326 l 2
 142 269 174 244 219 244 c 3
 288 244 386 317 386 396 c 1
 426 356 l 1
 405 247 295 178 214 178 c 3
 132 178 82 211 82 316 c 2
 82 470 l 1
154 -87 m 1
 272 -77 386 0 386 226 c 2
 386 470 l 1
 446 470 l 1
 446 231 l 2
 446 -48 310 -134 171 -154 c 5
 154 -154 l 1
 154 -87 l 1
EndSplineSet
EndChar
StartChar: s.fin
Encoding: 65567 -1 46
Width: 930
Flags: W
HStem: -120 66<515.903 706.426> 178 66<166.408 292.011> 450 20G<82 142 376.444 442>
VStem: 82 60<268.042 470> 363 62<53.508 276.602> 380 62<374.193 470> 845 61<132.703 261>
AnchorPoint: "top" 251 555 basechar 0
AnchorPoint: "bottom" 228 -178 basechar 0
LayerCount: 2
Fore
SplineSet
425 194 m 0xfa
 426 19.962890625 490 -54 614 -54 c 3
 776 -54 834 106 845 261 c 1
 906 261 l 1
 906 241 l 1
 893.8671875 58 803 -120 608 -120 c 3
 454 -120 364 -33.623046875 363 186 c 0xfa
 363 319.541992188 372.888671875 422 380 470 c 1
 442 470 l 1
 442 446 l 1xf6
 434 385 425 281.043945312 425 194 c 0xfa
279 -46 m 1
 244 -98 l 1
 224 -98 l 1
 182 -49 l 1
 217 3 l 1
 239 3 l 1
 279 -46 l 1
82 470 m 1
 142 470 l 1
 142 326 l 2
 142 269 184 244 223 244 c 3
 292 244 376 321 376 400 c 1
 416 356 l 1
 395 247 299 178 218 178 c 3
 142 178 82 211 82 316 c 2
 82 470 l 1
EndSplineSet
EndChar
StartChar: s.ini
Encoding: 65565 -1 44
Width: 850
Flags: W
HStem: -120 66<521.063 693.114> 178 66<166.408 292.011> 450 20G<82 142 376.444 442>
VStem: 82 60<268.042 470> 363 62<63.78 276.602> 380 62<374.193 470>
AnchorPoint: "top" 251 555 basechar 0
AnchorPoint: "bottom" 228 -178 basechar 0
LayerCount: 2
Back
SplineSet
436 470 m 25
 436 358.086956522 436 241.043945312 436 154 c 3
 436 29.962890625 479 -54 603 -54 c 3
 765 -54 864 120 924 261 c 1
 985 261 l 1
 985 241 l 1
 913 76 792 -120 597 -120 c 3
 443 -120 374 -23.623046875 374 146 c 3
 374 279.541992188 374 355.091549296 374 470 c 25
 436 470 l 25
279 -46 m 1
 244 -98 l 1
 224 -98 l 1
 182 -49 l 1
 217 3 l 1
 239 3 l 1
 279 -46 l 1
82 470 m 1
 142 470 l 1
 142 326 l 2
 142 269 184 244 223 244 c 3
 292 244 376 321 376 400 c 1
 416 356 l 1
 395 247 299 178 218 178 c 3
 142 178 82 211 82 316 c 2
 82 470 l 1
452 446 m 5
 434 385 416 281.043945312 416 194 c 7
 416 49.962890625 479 -54 603 -54 c 7
 765 -54 864 120 924 261 c 5
 985 261 l 5
 985 241 l 5
 913 76 792 -120 597 -120 c 7
 443 -120 354 -3.623046875 354 186 c 7
 354 319.541992188 374 422 390 470 c 5
 452 470 l 5
 452 446 l 5
836 241 m 1
 749 42 621.221679688 -4 524 -4 c 3
 428 -4 345 32 345 192 c 0
 345 440 l 1
 405 440 l 1
 405 230 405 324 405 195 c 0
 405 89 457 62 530 62 c 3
 600.724609375 62 707 93 775 261 c 1
 836 261 l 1
 836 241 l 1
EndSplineSet
Fore
SplineSet
82 470 m 1xf0
 142 470 l 1
 142 326 l 2
 142 269 184 244 223 244 c 3
 292 244 376 321 376 400 c 1
 416 356 l 1
 395 247 299 178 218 178 c 3
 142 178 82 211 82 316 c 2
 82 470 l 1xf0
442 446 m 1xf4
 434 385 425 281.043945312 425 194 c 3
 425 49.962890625 485.630859375 -54 603 -54 c 3
 765 -54 877 130 936 311 c 1
 953 311 l 1
 980 241 l 1
 908 76 792 -120 597 -120 c 3
 449.337890625 -120 363 -3.623046875 363 186 c 3xf8
 363 319.541992188 372.888671875 422 380 470 c 1
 442 470 l 1
 442 446 l 1xf4
279 -46 m 1
 244 -98 l 1
 224 -98 l 1
 182 -49 l 1
 217 3 l 1
 239 3 l 1
 279 -46 l 1
EndSplineSet
EndChar
StartChar: s.mid
Encoding: 65566 -1 45
Width: 850
Flags: W
HStem: -120 66<521.063 692.997> 178 66<166.408 292.011> 266 20G<902.108 962.778> 450 20G<82 142 376.444 442>
VStem: 82 60<268.042 470> 363 62<63.78 276.602> 380 62<374.193 470>
AnchorPoint: "top" 251 555 basechar 0
AnchorPoint: "bottom" 228 -178 basechar 0
LayerCount: 2
Back
SplineSet
82 416 m 5
 142 416 l 5
 142 326 l 6
 142 269 155 244 193 244 c 7
 241 244 285 278 338 353 c 5
 378 323 l 5
 334 247 262 178 188 178 c 7
 112 178 82 211 82 316 c 6
 82 416 l 5
EndSplineSet
Fore
SplineSet
82 470 m 1xf8
 142 470 l 1
 142 326 l 2
 142 269 184 244 223 244 c 3
 292 244 376 321 376 400 c 1
 416 356 l 1
 395 247 299 178 218 178 c 3
 142 178 82 211 82 316 c 2
 82 470 l 1xf8
442 446 m 1xfa
 434 385 425 281.043945312 425 194 c 3
 425 49.962890625 485.630859375 -54 603 -54 c 3
 765 -54 875.215469613 131 929 286 c 1
 949 286 l 1
 980 241 l 1
 908 76 792 -120 597 -120 c 3
 449.337890625 -120 363 -3.623046875 363 186 c 3xfc
 363 319.541992188 372.888671875 422 380 470 c 1
 442 470 l 1
 442 446 l 1xfa
279 -46 m 1
 244 -98 l 1
 224 -98 l 1
 182 -49 l 1
 217 3 l 1
 239 3 l 1
 279 -46 l 1
EndSplineSet
EndChar
StartChar: t.fin
Encoding: 65605 -1 100
Width: 1130
Flags: W
HStem: -120 66<49 76.4689 715.903 906.426> 178 66<345.724 508.592> 410 64<119.407 245.553>
VStem: 36 60<270.111 386.017> 82 38<202.566 224.152> 563 62<53.508 262.426> 577 34<279 376> 580 62<386.104 470> 1045 61<132.703 261>
AnchorPoint: "bottom" 433 0 basechar 0
AnchorPoint: "top" 434 554 basechar 0
LayerCount: 2
Back
SplineSet
302 241 m 5
 284 237 l 5
 251 286 l 5
 258 301 262 325.764648438 262 345 c 7
 262 389 235 410 210 410 c 7xde
 189 410 171 405 147 395 c 5
 134 395 l 5
 134 459 l 5xee
 162 469 182 474 207 474 c 7xde
 285 474 330 433 330 344 c 7
 330 306.946289062 326 289 302 241 c 5
EndSplineSet
Fore
SplineSet
332 272 m 1xe280
 365 246.071289062 388.973632812 244 430 244 c 3
 490.71875 244 572.423828125 279 577 406 c 1
 611 376 l 1
 606.580078125 218 514.1328125 178 421 178 c 3
 370.372070312 178 351 182 317 197 c 1
 310 275 l 1
 332 272 l 1xe280
625 194 m 0xe480
 626 19.962890625 690 -54 814 -54 c 3
 976 -54 1034 106 1045 261 c 1
 1106 261 l 1
 1106 241 l 1
 1093.8671875 58 1003 -120 808 -120 c 3
 654 -120 564 -33.623046875 563 186 c 0xe480
 563 319.541992188 572.888671875 422 580 470 c 1
 642 470 l 1
 642 446 l 1xe180
 634 385 625 281.043945312 625 194 c 0xe480
68 -116 m 1
 49 -116 l 1
 49 -50 l 1
 216 35 281 169.55078125 281 261 c 3
 281 368.786826653 248.032778079 410 187 410 c 3
 128 410 96 377.16990566 96 330 c 3xf080
 96 306.96875 112 273 126 261 c 1
 126 241 l 1
 120 206 l 1
 109 200 97 196 82 191 c 1xe880
 74 228 l 1
 56 247.323242188 36 285 36 338 c 3xf080
 36 415.414468932 91.9150390625 474 186 474 c 3
 291.223632812 474 347 392.185475753 347 260 c 3
 347 116 250 -21 68 -116 c 1
EndSplineSet
Substitution2: "from_low-1" t.fin.low
EndChar
StartChar: t.fin.low
Encoding: 65607 -1 102
Width: 920
Flags: W
HStem: -120 66<505.903 696.426> 178 66<118.082 297.592> 395 64<-51 20.8289> 410 64<-43.4925 65.0536>
VStem: 77 68<275.96 399.113> 353 62<53.508 262.426> 366 34<279 376> 370 62<386.104 470> 835 61<132.703 261>
AnchorPoint: "bottom" 217 0 basechar 0
AnchorPoint: "top" 218 554 basechar 0
LayerCount: 2
Fore
SplineSet
132 241 m 1xd880
 114 237 l 1
 52.9111328125 217 l 1
 66.9999970553 254.848771936 77 310.94140625 77 345 c 3
 77 389 50 410 25 410 c 3xd880
 -1 410 -19 405 -38 395 c 1
 -51 395 l 1
 -51 459 l 1xe880
 -27 468 -3 474 22 474 c 3
 100 474 145 433 145 344 c 3
 145 306.946289062 139 265 132 241 c 1xd880
415 194 m 0xcc80
 416 19.962890625 480 -54 604 -54 c 3
 766 -54 824 106 835 261 c 1
 896 261 l 1
 896 241 l 1
 883.8671875 58 793 -120 598 -120 c 3
 444 -120 354 -33.623046875 353 186 c 0xcc80
 353 319.541992188 362.888671875 422 370 470 c 1
 432 470 l 1
 432 446 l 1xc980
 424 385 415 281.043945312 415 194 c 0xcc80
121 272 m 5
 154 246.071289062 177.973632812 244 219 244 c 7
 279.71875 244 361.423828125 279 366 406 c 5
 400 376 l 5xca80
 395.580078125 218 303.1328125 178 210 178 c 7
 159.372070312 178 140 182 106 197 c 5
 99 275 l 5
 121 272 l 5
EndSplineSet
EndChar
StartChar: t.ini
Encoding: 65603 -1 98
Width: 1030
Flags: W
HStem: -120 66<29 56.4689 701.063 873.114> 178 66<325.724 488.592> 382.127 68.1152<70 133.303> 410 64<97.9592 225.553>
VStem: 543 62<63.78 262.426> 557 34<279 376> 560 62<386.104 470>
AnchorPoint: "bottom" 413 0 basechar 0
AnchorPoint: "top" 414 554 basechar 0
LayerCount: 2
Fore
SplineSet
312 272 m 1xc4
 345 246.071289062 368.973632812 244 410 244 c 3
 470.71875 244 552.423828125 279 557 406 c 1
 591 376 l 1
 586.580078125 218 494.1328125 178 401 178 c 3
 350.372070312 178 331 182 297 197 c 1
 290 275 l 1
 312 272 l 1xc4
622 446 m 1xc2
 614 385 605 281.043945312 605 194 c 3
 605 49.962890625 665.630859375 -54 783 -54 c 3
 945 -54 1057 130 1116 311 c 1
 1133 311 l 1
 1160 241 l 1
 1088 76 972 -120 777 -120 c 3
 629.337890625 -120 543 -3.623046875 543 186 c 3xc8
 543 319.541992188 552.888671875 422 560 470 c 1
 622 470 l 1
 622 446 l 1xc2
48 -116 m 5
 29 -116 l 5
 29 -50 l 5
 196 35 261 169.55078125 261 261 c 7
 261 368.787109375 228.033203125 410 167 410 c 7xd0
 138.760742188 410 106.708007812 395.614257812 90 382.126953125 c 5
 69.9990234375 382.126953125 l 5
 70 450.2421875 l 5xe0
 91.8447265625 466.393554688 125.966796875 474 166 474 c 7xd0
 271.223632812 474 327 392.185546875 327 260 c 7
 327 116 230 -21 48 -116 c 5
EndSplineSet
EndChar
StartChar: t.mid
Encoding: 65604 -1 99
Width: 1050
Flags: W
HStem: -120 66<49 76.4689 721.063 893.114> 178 66<345.724 508.592> 410 64<119.407 245.553>
VStem: 36 60<270.111 386.017> 82 38<202.566 224.152> 563 62<63.78 262.426> 577 34<279 376> 580 62<386.104 470>
AnchorPoint: "bottom" 433 0 basechar 0
AnchorPoint: "top" 434 554 basechar 0
LayerCount: 2
Fore
SplineSet
332 272 m 5xe2
 365 246.071289062 388.973632812 244 430 244 c 7
 490.71875 244 572.423828125 279 577 406 c 5
 611 376 l 5
 606.580078125 218 514.1328125 178 421 178 c 7
 370.372070312 178 351 182 317 197 c 5
 310 275 l 5
 332 272 l 5xe2
642 446 m 5xe1
 634 385 625 281.043945312 625 194 c 7
 625 49.962890625 685.630859375 -54 803 -54 c 7
 965 -54 1077 130 1136 311 c 5
 1153 311 l 5
 1180 241 l 5
 1108 76 992 -120 797 -120 c 7
 649.337890625 -120 563 -3.623046875 563 186 c 7xe4
 563 319.541992188 572.888671875 422 580 470 c 5
 642 470 l 5
 642 446 l 5xe1
68 -116 m 1
 49 -116 l 1
 49 -50 l 1
 216 35 281 169.55078125 281 261 c 3
 281 368.786826653 248.032778079 410 187 410 c 3
 128 410 96 377.16990566 96 330 c 3xf0
 96 306.96875 112 273 126 261 c 1
 126 241 l 1
 120 206 l 1
 109 200 97 196 82 191 c 1xe8
 74 228 l 1
 56 247.323242188 36 285 36 338 c 3xf0
 36 415.414468932 91.9150390625 474 186 474 c 3
 291.223632812 474 347 392.185475753 347 260 c 3
 347 116 250 -21 68 -116 c 1
EndSplineSet
Substitution2: "from_low-1" t.mid.low
EndChar
StartChar: t.mid.low
Encoding: 65606 -1 101
Width: 840
Flags: W
HStem: -120 66<511.063 683.114> 178 66<118.082 297.592> 395 64<-51 20.8289> 410 64<-43.4925 65.0536>
VStem: 77 68<275.96 399.113> 353 62<63.78 262.426> 366 34<279 376> 370 62<386.104 470>
AnchorPoint: "bottom" 217 0 basechar 0
AnchorPoint: "top" 218 554 basechar 0
LayerCount: 2
Fore
SplineSet
121 272 m 5xca
 154 246.071289062 177.973632812 244 219 244 c 7
 279.71875 244 361.423828125 279 366 406 c 5
 400 376 l 5
 395.580078125 218 303.1328125 178 210 178 c 7
 159.372070312 178 140 182 106 197 c 5
 99 275 l 5
 121 272 l 5xca
432 446 m 1xc9
 424 385 415 281.043945312 415 194 c 3
 415 49.962890625 475.630859375 -54 593 -54 c 3
 755 -54 867 130 926 311 c 1
 943 311 l 1
 970 241 l 1
 898 76 782 -120 587 -120 c 3
 439.337890625 -120 353 -3.623046875 353 186 c 3xcc
 353 319.541992188 362.888671875 422 370 470 c 1
 432 470 l 1
 432 446 l 1xc9
132 241 m 1
 114 237 l 1
 52.9111328125 217 l 1
 66.9999970553 254.848771936 77 310.94140625 77 345 c 3
 77 389 50 410 25 410 c 3xd8
 -1 410 -19 405 -38 395 c 1
 -51 395 l 1
 -51 459 l 1xe8
 -27 468 -3 474 22 474 c 3xd8
 100 474 145 433 145 344 c 3
 145 306.946289062 139 265 132 241 c 1
EndSplineSet
EndChar
StartChar: u.fin
Encoding: 65568 -1 47
Width: 460
Flags: W
HStem: -149 60.082<142.821 236.185> 25 56<144.527 302.233> 178 60<165.344 339.879> 450 20G<82 148>
VStem: 64 66<-77.1696 10.6425> 82 66<256.648 470>
AnchorPoint: "tail" 349 -28.3528 basechar 0
LayerCount: 2
Fore
SplineSet
434 250 m 1xf8
 434 211 l 1
 368 24 l 2
 330.561523438 -79.806640625 278.026367188 -149 188 -149 c 3
 107.900390625 -149 64 -102.028320312 64 -32 c 3
 64 33.84375 125.970703125 81 194 81 c 3
 251.715820312 81 305.08984375 76.8017578125 329 71 c 1
 318 14 l 1
 286 20 240.17578125 25 203 25 c 3
 151.595703125 25 130 -5.31640625 130 -32 c 3
 130 -62.06640625 155.9296875 -88.91796875 182 -88.91796875 c 3
 248.234375 -88.91796875 280.639648438 -13.900390625 315 81 c 2
 345 216 l 1
 434 250 l 1xf8
273 178 m 3
 134 178 82 199.65625 82 303 c 2
 82 470 l 1
 148 470 l 1
 148 311 l 2xf4
 148 238.680664062 199.447265625 238 273 238 c 7
 309.207907769 238 366.8125 242.458984375 414 250.1796875 c 5
 434 250 l 1
 404 210 l 1
 360 197 332 178 273 178 c 3
EndSplineSet
Substitution2: "from_low-1" u.fin.low
EndChar
StartChar: u.fin.low
Encoding: 65618 -1 151
Width: 500
Flags: W
HStem: -149 60.082<182.821 276.185> 25 56<184.527 342.233> 178 60<179.442 395.28> 450 20G<82 148>
VStem: 82 66<268.044 470> 104 66<-77.1696 10.6425>
AnchorPoint: "tail" 389 -28.3528 basechar 0
LayerCount: 2
Fore
SplineSet
479 272 m 1xf4
 479 225 l 1
 408 24 l 2
 370.561523438 -79.806640625 318.026367188 -149 228 -149 c 3
 147.900390625 -149 104 -102.028320312 104 -32 c 3
 104 33.84375 165.970703125 81 234 81 c 3
 291.715820312 81 345.08984375 76.8017578125 369 71 c 1
 358 14 l 1
 326 20 280.17578125 25 243 25 c 3
 191.595703125 25 170 -5.31640625 170 -32 c 3
 170 -62.06640625 195.9296875 -88.91796875 222 -88.91796875 c 3
 288.234375 -88.91796875 320.639648438 -13.900390625 355 81 c 2
 405 226 l 1
 479 272 l 1xf4
273 178 m 3
 134 178 82 219.65625 82 323 c 2
 82 470 l 1
 148 470 l 1
 148 331 l 2xf8
 148 258.680664062 199.447265625 238 273 238 c 3
 354 238 423 257 467 272 c 9
 479 272 l 1
 444 210 l 5
 400 197 372 178 273 178 c 3
EndSplineSet
EndChar
StartChar: u.mark
Encoding: 65541 -1 20
Width: 0
Flags: W
HStem: -233 40<118.243 195.757> -89 40<118.243 195.757>
VStem: 65 44<-185.548 -96.4519> 205 44<-185.548 -96.4519>
AnchorPoint: "bottom" 157 -78 mark 0
LayerCount: 2
Fore
SplineSet
109 -141 m 0
 109 -178 133 -193 157 -193 c 0
 181 -193 205 -178 205 -141 c 4
 205 -104 181 -89 157 -89 c 0
 133 -89 109 -104 109 -141 c 0
65 -141 m 0
 65 -89 105 -49 157 -49 c 0
 209 -49 249 -89 249 -141 c 4
 249 -193 209 -233 157 -233 c 0
 105 -233 65 -193 65 -141 c 0
EndSplineSet
EndChar
StartChar: v.fin
Encoding: 65583 -1 69
Width: 1050
Flags: W
HStem: -120 66<643.691 826.426> 182 66<143.521 550> 414 60<151.506 258.053>
VStem: 74 60<248.486 396.027> 275 62<281.491 396.856> 504 62<32.8778 182 248 470> 504 46<182 248> 965 61<132.703 261>
AnchorPoint: "top" 217 554 basechar 0
AnchorPoint: "bottom" 238 -178 basechar 0
LayerCount: 2
Fore
SplineSet
728 -120 m 3xfd
 573 -120 504 -23.623046875 504 146 c 3
 504 279.541992188 504 355.091796875 504 470 c 25
 566 470 l 25
 566 358.086914062 566 241.043945312 566 154 c 3
 566 29.962890625 609 -54 734 -54 c 3
 896 -54 954 106 965 261 c 1
 1026 261 l 1
 1026 241 l 1
 1013.8671875 58 923 -120 728 -120 c 3xfd
289 -46 m 1
 254 -98 l 1
 234 -98 l 1
 192 -49 l 1
 227 3 l 1
 249 3 l 1
 289 -46 l 1
74 333 m 3
 74 421 131 474 209 474 c 3
 285 474 337 430 337 348 c 3
 337 263 271 233 212 213 c 1
 153 228 l 1
 207 235 275 277 275 338 c 3
 275 389 247 414 205 414 c 3
 165 414 134 391 134 335 c 3
 134 286 144 264 155 248 c 1
 334 248 471 248 553 248 c 1
 550 182 l 1xfb
 449 182 281 182 115 182 c 1
 89 218 74 266 74 333 c 3
EndSplineSet
EndChar
StartChar: w.fin
Encoding: 65584 -1 71
Width: 810
Flags: W
HStem: 170 66<140.691 526.356> 178 66<671.461 772.217> 360 60<134.971 219.857>
VStem: 67 60<257.085 352.902> 228 62<263.067 352.761> 602 60<259 416> 602 42<224.451 341>
AnchorPoint: "tail" 628 248 basechar 0
AnchorPoint: "bottom" 228 -78 basechar 0
AnchorPoint: "top" 206 554 basechar 0
LayerCount: 2
Fore
SplineSet
279 54 m 1x38
 244 2 l 1
 224 2 l 1
 182 51 l 1
 217 103 l 1
 239 103 l 1
 279 54 l 1x38
382 170 m 3xb8
 236 170 159 182 110 205 c 1
 84 241 69 273.991210938 69 333 c 3
 69 421 126 474 204 474 c 3
 280 474 332 430 332 348 c 3
 332 263 266 233 207 213 c 1
 148 228 l 1
 202 234 270 277 270 338 c 3
 270 389 242 414 200 414 c 3
 160 414 129 391 129 335 c 3
 129 299.872070312 139 276 150 260 c 1
 208 241 288 236 390 236 c 3
 560 236 689 335 725 555 c 5
 786 555 l 1
 786 535 l 5
 751 305 608 170 382 170 c 3xb8
EndSplineSet
EndChar
StartChar: x.fin
Encoding: 65593 -1 82
Width: 660
Flags: W
HStem: 178 66<531.461 628.849> 450 20G<462 522> 623 64<21 132.129> 642 64<21.9911 202.777>
VStem: 241 66<391.914 601.085> 462 60<251.33 308 416 470> 462 42<280.832 416>
AnchorPoint: "bottom" 338 -78 basechar 0
AnchorPoint: "top" 317 770 basechar 0
LayerCount: 2
Fore
SplineSet
243 386 m 1xca
 364 249 l 1
 405 261 460 335 464 446 c 1
 504 416 l 1
 500 273 423 194 362 178 c 1
 342 178 l 1
 202 332 l 1
 243 386 l 1xca
565.974609375 178 m 7
 514 178 462 202 462 298 c 6
 462 470 l 5
 522 470 l 5
 522 308 l 6xcc
 522 259 544 244 573.474609375 244 c 7
 594 244 614.55078125 247.5 627 255 c 5
 637 255 l 5
 632 185 l 5
 616.943359375 180 593 178 565.974609375 178 c 7
319 55 m 1
 284 3 l 1
 264 3 l 1
 222 52 l 1
 257 104 l 1
 279 104 l 1
 319 55 l 1
469 55 m 1
 434 3 l 1
 414 3 l 1
 372 52 l 1
 407 104 l 1
 429 104 l 1
 469 55 l 1
82 191 m 1
 70 196 l 1
 85 261 l 1
 226 313 241 449.673828125 241 512 c 3
 241 602.083007812 200.03125 642 137 642 c 3xd8
 98 642 68 634 34 623 c 1
 21 623 l 1
 21 687 l 1xe8
 59 699 94 706 134 706 c 3xd8
 231.064453125 706 307 649.463867188 307 511 c 3
 307 429 285 238 82 191 c 1
EndSplineSet
Substitution2: "from_low-1" x.fin.low
EndChar
StartChar: x.ini
Encoding: 65591 -1 80
Width: 680
Flags: W
HStem: 178 66<579.946 762.029> 450 20G<502 562> 623 64<61 175.178> 642 64<61.994 242.343>
VStem: 281 66<414.654 602.196> 502 60<263.819 318 416 470> 502 42<293.871 416>
AnchorPoint: "bottom" 378 -78 basechar 0
AnchorPoint: "top" 357 770 basechar 0
LayerCount: 2
Back
SplineSet
289 386 m 5
 304.458007812 310 359.973632812 244 391 244 c 7
 441.71875 244 500 295 504 406 c 5
 544 376 l 5
 540 233 455.1328125 178 382 178 c 7
 317.818359375 178 258.904296875 248 223 352 c 5
 289 386 l 5
EndSplineSet
Fore
SplineSet
73 182.193359375 m 1xd8
 58 180.818359375 l 1
 58 248.317382812 l 1
 257 331 281 438.943359375 281 528 c 3
 281 597.1015625 240.03125 642 177 642 c 3xd8
 138 642 108 634 74 623 c 1
 61 623 l 1
 61 687 l 1xe8
 99 699 142 706 182 706 c 3
 279.064453125 706 347 653.00390625 347 531 c 3
 347 425.98046875 312 274 73 182.193359375 c 1xd8
283 386 m 1
 404 249 l 1
 445 261 500 335 504 446 c 1
 544 416 l 1xca
 540 273 463 194 402 178 c 1
 382 178 l 1
 223 352 l 1
 283 386 l 1
359 55 m 1
 324 3 l 1
 304 3 l 1
 262 52 l 1
 297 104 l 1
 319 104 l 1
 359 55 l 1
509 55 m 1
 474 3 l 1
 454 3 l 1
 412 52 l 1
 447 104 l 1
 469 104 l 1
 509 55 l 1
637.974609375 178 m 7
 567.905273438 178 502 209 502 298 c 6
 502 470 l 5
 562 470 l 5
 562 318 l 6xcc
 562 266 591.9921875 244 645.474609375 244 c 7
 700.083007812 244 743.55078125 250.5 765 261 c 5
 775 261 l 5
 762 191 l 5
 743.943359375 179.11328125 698.041992188 178 637.974609375 178 c 7
EndSplineSet
EndChar
StartChar: x.mid
Encoding: 65592 -1 81
Width: 640
Flags: W
HStem: 178 66<539.946 722.029> 450 20G<462 522> 623 64<21 132.129> 642 64<21.9911 202.777>
VStem: 241 66<391.914 601.085> 462 60<263.819 318 416 470> 462 42<293.871 416>
AnchorPoint: "bottom" 338 -78 basechar 0
AnchorPoint: "top" 317 770 basechar 0
LayerCount: 2
Fore
SplineSet
243 386 m 5xca
 364 249 l 5
 405 261 460 335 464 446 c 5
 504 416 l 5
 500 273 423 194 362 178 c 5
 342 178 l 5
 202 332 l 5
 243 386 l 5xca
319 55 m 1
 284 3 l 1
 264 3 l 1
 222 52 l 1
 257 104 l 1
 279 104 l 1
 319 55 l 1
469 55 m 1
 434 3 l 1
 414 3 l 1
 372 52 l 1
 407 104 l 1
 429 104 l 1
 469 55 l 1
597.974609375 178 m 3
 527.905273438 178 462 209 462 298 c 2
 462 470 l 1
 522 470 l 1
 522 318 l 2xcc
 522 266 551.9921875 244 605.474609375 244 c 3
 660.083007812 244 703.55078125 250.5 725 261 c 1
 735 261 l 1
 722 191 l 1
 703.943359375 179.11328125 658.041992188 178 597.974609375 178 c 3
82 191 m 1
 70 196 l 1
 85 261 l 1
 226 313 241 449.673828125 241 512 c 3
 241 602.083007812 200.03125 642 137 642 c 3xd8
 98 642 68 634 34 623 c 1
 21 623 l 1
 21 687 l 1xe8
 59 699 94 706 134 706 c 3xd8
 231.064453125 706 307 649.463867188 307 511 c 3
 307 429 285 238 82 191 c 1
EndSplineSet
Substitution2: "from_low-1" x.mid.low
EndChar
StartChar: y.fin.low
Encoding: 65610 -1 106
Width: 530
Flags: W
HStem: -120 66<336.735 454> 254 69<274.519 400.278> 273 67<117.82 208.833> 414 60<305.04 401.15>
VStem: 204 62<35.4316 313.46> 408 60<332.776 406.549>
AnchorPoint: "bottom" 284 -149 basechar 0
AnchorPoint: "top" 325 554 basechar 0
AnchorPoint: "tail" 444 -115 basechar 0
LayerCount: 2
Fore
SplineSet
158 340 m 3xbc
 217.05078125 340 295 323 341 323 c 3
 383.573242188 323 408 342.14009025 408 365 c 3
 408 400 390 414 342 414 c 3
 299 414 266 354 266 180.725097656 c 3
 266 7.4501953125 331 -54 395 -54 c 3
 407.098632812 -54 425.24609375 -54 436 -51 c 1
 454 -51 l 1
 454 -115 l 1
 435.647460938 -119 408.8828125 -120 389 -120 c 3
 294.228515625 -120 204 -34.8984375 204 181.444824219 c 3
 204 397.788085938 263 474 354 474 c 3
 427 474 468 440 468 361 c 3
 468 278.9765625 408 254 347 254 c 3xdc
 298 254 225.080078125 273 183 273 c 3
 164.751953125 273 141.324174519 264 132 241.000976562 c 1
 81 286 l 1
 98 335 129 340 158 340 c 3xbc
EndSplineSet
EndChar
StartChar: z.fin
Encoding: 65609 -1 105
Width: 750
Flags: W
HStem: 178 66<173.927 453.192> 450 20G<72 132> 636 66<583 609>
VStem: 72 60<284.094 470> 639 60<411.003 604.748>
AnchorPoint: "bottom" 308 -78 basechar 0
AnchorPoint: "top" 303 555 basechar 0
AnchorPoint: "tail" 559 248 basechar 0
LayerCount: 2
Fore
SplineSet
359 54 m 1
 324 2 l 1
 304 2 l 1
 262 51 l 1
 297 103 l 1
 319 103 l 1
 359 54 l 1
72 348 m 2
 72 470 l 1
 132 470 l 1
 132 358 l 2
 132 257 193.799804688 244 319.400390625 244 c 3
 532.313476562 244 639 376 639 506 c 3
 639 565.008473968 625 616 583 636 c 1
 583 702 l 1
 609 702 l 1
 681 664 699 588 699 506 c 3
 699 333.802734375 570.578125 178 314.599609375 178 c 3
 171.400390625 178 72 205 72 348 c 2
EndSplineSet
EndChar
